%TF.GenerationSoftware,KiCad,Pcbnew,(6.0.9-0)*%
%TF.CreationDate,2023-01-29T21:20:06-03:00*%
%TF.ProjectId,WaterPumpControl,57617465-7250-4756-9d70-436f6e74726f,rev?*%
%TF.SameCoordinates,Original*%
%TF.FileFunction,Legend,Top*%
%TF.FilePolarity,Positive*%
%FSLAX46Y46*%
G04 Gerber Fmt 4.6, Leading zero omitted, Abs format (unit mm)*
G04 Created by KiCad (PCBNEW (6.0.9-0)) date 2023-01-29 21:20:06*
%MOMM*%
%LPD*%
G01*
G04 APERTURE LIST*
G04 Aperture macros list*
%AMRoundRect*
0 Rectangle with rounded corners*
0 $1 Rounding radius*
0 $2 $3 $4 $5 $6 $7 $8 $9 X,Y pos of 4 corners*
0 Add a 4 corners polygon primitive as box body*
4,1,4,$2,$3,$4,$5,$6,$7,$8,$9,$2,$3,0*
0 Add four circle primitives for the rounded corners*
1,1,$1+$1,$2,$3*
1,1,$1+$1,$4,$5*
1,1,$1+$1,$6,$7*
1,1,$1+$1,$8,$9*
0 Add four rect primitives between the rounded corners*
20,1,$1+$1,$2,$3,$4,$5,0*
20,1,$1+$1,$4,$5,$6,$7,0*
20,1,$1+$1,$6,$7,$8,$9,0*
20,1,$1+$1,$8,$9,$2,$3,0*%
G04 Aperture macros list end*
%ADD10C,0.150000*%
%ADD11C,0.250000*%
%ADD12C,0.300000*%
%ADD13C,0.120000*%
%ADD14R,3.000000X3.000000*%
%ADD15C,3.000000*%
%ADD16RoundRect,0.200000X-0.200000X-0.275000X0.200000X-0.275000X0.200000X0.275000X-0.200000X0.275000X0*%
%ADD17R,1.550000X1.300000*%
%ADD18RoundRect,0.237500X0.300000X0.237500X-0.300000X0.237500X-0.300000X-0.237500X0.300000X-0.237500X0*%
%ADD19RoundRect,0.218750X0.218750X0.256250X-0.218750X0.256250X-0.218750X-0.256250X0.218750X-0.256250X0*%
%ADD20RoundRect,0.200000X0.200000X0.275000X-0.200000X0.275000X-0.200000X-0.275000X0.200000X-0.275000X0*%
%ADD21R,1.600000X0.550000*%
%ADD22R,0.550000X1.600000*%
%ADD23R,2.000000X1.500000*%
%ADD24R,2.000000X3.800000*%
%ADD25R,1.700000X1.700000*%
%ADD26O,1.700000X1.700000*%
%ADD27R,3.200000X0.400000*%
%ADD28RoundRect,0.150000X-0.587500X-0.150000X0.587500X-0.150000X0.587500X0.150000X-0.587500X0.150000X0*%
%ADD29R,2.000000X4.500000*%
%ADD30O,2.000000X4.000000*%
%ADD31O,4.000000X2.000000*%
%ADD32RoundRect,0.250000X0.625000X-0.375000X0.625000X0.375000X-0.625000X0.375000X-0.625000X-0.375000X0*%
G04 APERTURE END LIST*
D10*
X31000000Y-54880000D02*
X36500000Y-54880000D01*
X102740000Y-21300000D02*
X72550000Y-21300000D01*
X72550000Y-21300000D02*
X72550000Y-58920000D01*
X72550000Y-58920000D02*
X102740000Y-58920000D01*
X102740000Y-58920000D02*
X102740000Y-21300000D01*
X72550000Y-38920000D02*
X102740000Y-38920000D01*
X31335595Y-67808571D02*
X31668928Y-67808571D01*
X31811785Y-68332380D02*
X31335595Y-68332380D01*
X31335595Y-67332380D01*
X31811785Y-67332380D01*
X32240357Y-68332380D02*
X32240357Y-67665714D01*
X32240357Y-67856190D02*
X32287976Y-67760952D01*
X32335595Y-67713333D01*
X32430833Y-67665714D01*
X32526071Y-67665714D01*
X32859404Y-68332380D02*
X32859404Y-67665714D01*
X32859404Y-67856190D02*
X32907023Y-67760952D01*
X32954642Y-67713333D01*
X33049880Y-67665714D01*
X33145119Y-67665714D01*
X33621309Y-68332380D02*
X33526071Y-68284761D01*
X33478452Y-68237142D01*
X33430833Y-68141904D01*
X33430833Y-67856190D01*
X33478452Y-67760952D01*
X33526071Y-67713333D01*
X33621309Y-67665714D01*
X33764166Y-67665714D01*
X33859404Y-67713333D01*
X33907023Y-67760952D01*
X33954642Y-67856190D01*
X33954642Y-68141904D01*
X33907023Y-68237142D01*
X33859404Y-68284761D01*
X33764166Y-68332380D01*
X33621309Y-68332380D01*
X34383214Y-68332380D02*
X34383214Y-67665714D01*
X34383214Y-67856190D02*
X34430833Y-67760952D01*
X34478452Y-67713333D01*
X34573690Y-67665714D01*
X34668928Y-67665714D01*
X36240357Y-68332380D02*
X35764166Y-68332380D01*
X35764166Y-67332380D01*
X36573690Y-67808571D02*
X36907023Y-67808571D01*
X37049880Y-68332380D02*
X36573690Y-68332380D01*
X36573690Y-67332380D01*
X37049880Y-67332380D01*
X37478452Y-68332380D02*
X37478452Y-67332380D01*
X37716547Y-67332380D01*
X37859404Y-67380000D01*
X37954642Y-67475238D01*
X38002261Y-67570476D01*
X38049880Y-67760952D01*
X38049880Y-67903809D01*
X38002261Y-68094285D01*
X37954642Y-68189523D01*
X37859404Y-68284761D01*
X37716547Y-68332380D01*
X37478452Y-68332380D01*
X76428571Y-45404761D02*
X75476190Y-45404761D01*
X75476190Y-43404761D01*
X77380952Y-45404761D02*
X77190476Y-45309523D01*
X77095238Y-45119047D01*
X77095238Y-43404761D01*
X78904761Y-45309523D02*
X78714285Y-45404761D01*
X78333333Y-45404761D01*
X78142857Y-45309523D01*
X78047619Y-45119047D01*
X78047619Y-44357142D01*
X78142857Y-44166666D01*
X78333333Y-44071428D01*
X78714285Y-44071428D01*
X78904761Y-44166666D01*
X79000000Y-44357142D01*
X79000000Y-44547619D01*
X78047619Y-44738095D01*
X79857142Y-44071428D02*
X79857142Y-45404761D01*
X79857142Y-44261904D02*
X79952380Y-44166666D01*
X80142857Y-44071428D01*
X80428571Y-44071428D01*
X80619047Y-44166666D01*
X80714285Y-44357142D01*
X80714285Y-45404761D01*
X81952380Y-45404761D02*
X81761904Y-45309523D01*
X81666666Y-45214285D01*
X81571428Y-45023809D01*
X81571428Y-44452380D01*
X81666666Y-44261904D01*
X81761904Y-44166666D01*
X81952380Y-44071428D01*
X82238095Y-44071428D01*
X82428571Y-44166666D01*
X82523809Y-44261904D01*
X82619047Y-44452380D01*
X82619047Y-45023809D01*
X82523809Y-45214285D01*
X82428571Y-45309523D01*
X82238095Y-45404761D01*
X81952380Y-45404761D01*
X31907023Y-63237142D02*
X31859404Y-63284761D01*
X31716547Y-63332380D01*
X31621309Y-63332380D01*
X31478452Y-63284761D01*
X31383214Y-63189523D01*
X31335595Y-63094285D01*
X31287976Y-62903809D01*
X31287976Y-62760952D01*
X31335595Y-62570476D01*
X31383214Y-62475238D01*
X31478452Y-62380000D01*
X31621309Y-62332380D01*
X31716547Y-62332380D01*
X31859404Y-62380000D01*
X31907023Y-62427619D01*
X32335595Y-63332380D02*
X32335595Y-62665714D01*
X32335595Y-62332380D02*
X32287976Y-62380000D01*
X32335595Y-62427619D01*
X32383214Y-62380000D01*
X32335595Y-62332380D01*
X32335595Y-62427619D01*
X32764166Y-63284761D02*
X32859404Y-63332380D01*
X33049880Y-63332380D01*
X33145119Y-63284761D01*
X33192738Y-63189523D01*
X33192738Y-63141904D01*
X33145119Y-63046666D01*
X33049880Y-62999047D01*
X32907023Y-62999047D01*
X32811785Y-62951428D01*
X32764166Y-62856190D01*
X32764166Y-62808571D01*
X32811785Y-62713333D01*
X32907023Y-62665714D01*
X33049880Y-62665714D01*
X33145119Y-62713333D01*
X33478452Y-62665714D02*
X33859404Y-62665714D01*
X33621309Y-62332380D02*
X33621309Y-63189523D01*
X33668928Y-63284761D01*
X33764166Y-63332380D01*
X33859404Y-63332380D01*
X34573690Y-63284761D02*
X34478452Y-63332380D01*
X34287976Y-63332380D01*
X34192738Y-63284761D01*
X34145119Y-63189523D01*
X34145119Y-62808571D01*
X34192738Y-62713333D01*
X34287976Y-62665714D01*
X34478452Y-62665714D01*
X34573690Y-62713333D01*
X34621309Y-62808571D01*
X34621309Y-62903809D01*
X34145119Y-62999047D01*
X35049880Y-63332380D02*
X35049880Y-62665714D01*
X35049880Y-62856190D02*
X35097500Y-62760952D01*
X35145119Y-62713333D01*
X35240357Y-62665714D01*
X35335595Y-62665714D01*
X35668928Y-62665714D02*
X35668928Y-63332380D01*
X35668928Y-62760952D02*
X35716547Y-62713333D01*
X35811785Y-62665714D01*
X35954642Y-62665714D01*
X36049880Y-62713333D01*
X36097500Y-62808571D01*
X36097500Y-63332380D01*
X37002261Y-63332380D02*
X37002261Y-62808571D01*
X36954642Y-62713333D01*
X36859404Y-62665714D01*
X36668928Y-62665714D01*
X36573690Y-62713333D01*
X37002261Y-63284761D02*
X36907023Y-63332380D01*
X36668928Y-63332380D01*
X36573690Y-63284761D01*
X36526071Y-63189523D01*
X36526071Y-63094285D01*
X36573690Y-62999047D01*
X36668928Y-62951428D01*
X36907023Y-62951428D01*
X37002261Y-62903809D01*
X52947619Y-45752380D02*
X52614285Y-45276190D01*
X52376190Y-45752380D02*
X52376190Y-44752380D01*
X52757142Y-44752380D01*
X52852380Y-44800000D01*
X52900000Y-44847619D01*
X52947619Y-44942857D01*
X52947619Y-45085714D01*
X52900000Y-45180952D01*
X52852380Y-45228571D01*
X52757142Y-45276190D01*
X52376190Y-45276190D01*
X53376190Y-45228571D02*
X53709523Y-45228571D01*
X53852380Y-45752380D02*
X53376190Y-45752380D01*
X53376190Y-44752380D01*
X53852380Y-44752380D01*
X54233333Y-45704761D02*
X54376190Y-45752380D01*
X54614285Y-45752380D01*
X54709523Y-45704761D01*
X54757142Y-45657142D01*
X54804761Y-45561904D01*
X54804761Y-45466666D01*
X54757142Y-45371428D01*
X54709523Y-45323809D01*
X54614285Y-45276190D01*
X54423809Y-45228571D01*
X54328571Y-45180952D01*
X54280952Y-45133333D01*
X54233333Y-45038095D01*
X54233333Y-44942857D01*
X54280952Y-44847619D01*
X54328571Y-44800000D01*
X54423809Y-44752380D01*
X54661904Y-44752380D01*
X54804761Y-44800000D01*
X55233333Y-45228571D02*
X55566666Y-45228571D01*
X55709523Y-45752380D02*
X55233333Y-45752380D01*
X55233333Y-44752380D01*
X55709523Y-44752380D01*
X55995238Y-44752380D02*
X56566666Y-44752380D01*
X56280952Y-45752380D02*
X56280952Y-44752380D01*
X76428571Y-26904761D02*
X75476190Y-26904761D01*
X75476190Y-24904761D01*
X77380952Y-26904761D02*
X77190476Y-26809523D01*
X77095238Y-26619047D01*
X77095238Y-24904761D01*
X78904761Y-26809523D02*
X78714285Y-26904761D01*
X78333333Y-26904761D01*
X78142857Y-26809523D01*
X78047619Y-26619047D01*
X78047619Y-25857142D01*
X78142857Y-25666666D01*
X78333333Y-25571428D01*
X78714285Y-25571428D01*
X78904761Y-25666666D01*
X79000000Y-25857142D01*
X79000000Y-26047619D01*
X78047619Y-26238095D01*
X79857142Y-25571428D02*
X79857142Y-26904761D01*
X79857142Y-25761904D02*
X79952380Y-25666666D01*
X80142857Y-25571428D01*
X80428571Y-25571428D01*
X80619047Y-25666666D01*
X80714285Y-25857142D01*
X80714285Y-26904761D01*
X81952380Y-26904761D02*
X81761904Y-26809523D01*
X81666666Y-26714285D01*
X81571428Y-26523809D01*
X81571428Y-25952380D01*
X81666666Y-25761904D01*
X81761904Y-25666666D01*
X81952380Y-25571428D01*
X82238095Y-25571428D01*
X82428571Y-25666666D01*
X82523809Y-25761904D01*
X82619047Y-25952380D01*
X82619047Y-26523809D01*
X82523809Y-26714285D01*
X82428571Y-26809523D01*
X82238095Y-26904761D01*
X81952380Y-26904761D01*
X31287976Y-84046666D02*
X31764166Y-84046666D01*
X31192738Y-84332380D02*
X31526071Y-83332380D01*
X31859404Y-84332380D01*
X32192738Y-83332380D02*
X32192738Y-84141904D01*
X32240357Y-84237142D01*
X32287976Y-84284761D01*
X32383214Y-84332380D01*
X32573690Y-84332380D01*
X32668928Y-84284761D01*
X32716547Y-84237142D01*
X32764166Y-84141904D01*
X32764166Y-83332380D01*
X33145119Y-83332380D02*
X33811785Y-84332380D01*
X33811785Y-83332380D02*
X33145119Y-84332380D01*
X34716547Y-84332380D02*
X34145119Y-84332380D01*
X34430833Y-84332380D02*
X34430833Y-83332380D01*
X34335595Y-83475238D01*
X34240357Y-83570476D01*
X34145119Y-83618095D01*
D11*
X74976190Y-41634285D02*
X74880952Y-41729523D01*
X74595238Y-41824761D01*
X74404761Y-41824761D01*
X74119047Y-41729523D01*
X73928571Y-41539047D01*
X73833333Y-41348571D01*
X73738095Y-40967619D01*
X73738095Y-40681904D01*
X73833333Y-40300952D01*
X73928571Y-40110476D01*
X74119047Y-39920000D01*
X74404761Y-39824761D01*
X74595238Y-39824761D01*
X74880952Y-39920000D01*
X74976190Y-40015238D01*
X75833333Y-41824761D02*
X75833333Y-40491428D01*
X75833333Y-39824761D02*
X75738095Y-39920000D01*
X75833333Y-40015238D01*
X75928571Y-39920000D01*
X75833333Y-39824761D01*
X75833333Y-40015238D01*
X76690476Y-41729523D02*
X76880952Y-41824761D01*
X77261904Y-41824761D01*
X77452380Y-41729523D01*
X77547619Y-41539047D01*
X77547619Y-41443809D01*
X77452380Y-41253333D01*
X77261904Y-41158095D01*
X76976190Y-41158095D01*
X76785714Y-41062857D01*
X76690476Y-40872380D01*
X76690476Y-40777142D01*
X76785714Y-40586666D01*
X76976190Y-40491428D01*
X77261904Y-40491428D01*
X77452380Y-40586666D01*
X78119047Y-40491428D02*
X78880952Y-40491428D01*
X78404761Y-39824761D02*
X78404761Y-41539047D01*
X78500000Y-41729523D01*
X78690476Y-41824761D01*
X78880952Y-41824761D01*
X80309523Y-41729523D02*
X80119047Y-41824761D01*
X79738095Y-41824761D01*
X79547619Y-41729523D01*
X79452380Y-41539047D01*
X79452380Y-40777142D01*
X79547619Y-40586666D01*
X79738095Y-40491428D01*
X80119047Y-40491428D01*
X80309523Y-40586666D01*
X80404761Y-40777142D01*
X80404761Y-40967619D01*
X79452380Y-41158095D01*
X81261904Y-41824761D02*
X81261904Y-40491428D01*
X81261904Y-40872380D02*
X81357142Y-40681904D01*
X81452380Y-40586666D01*
X81642857Y-40491428D01*
X81833333Y-40491428D01*
X82500000Y-40491428D02*
X82500000Y-41824761D01*
X82500000Y-40681904D02*
X82595238Y-40586666D01*
X82785714Y-40491428D01*
X83071428Y-40491428D01*
X83261904Y-40586666D01*
X83357142Y-40777142D01*
X83357142Y-41824761D01*
X85166666Y-41824761D02*
X85166666Y-40777142D01*
X85071428Y-40586666D01*
X84880952Y-40491428D01*
X84500000Y-40491428D01*
X84309523Y-40586666D01*
X85166666Y-41729523D02*
X84976190Y-41824761D01*
X84500000Y-41824761D01*
X84309523Y-41729523D01*
X84214285Y-41539047D01*
X84214285Y-41348571D01*
X84309523Y-41158095D01*
X84500000Y-41062857D01*
X84976190Y-41062857D01*
X85166666Y-40967619D01*
D12*
X92721190Y-53824761D02*
X92721190Y-51824761D01*
X93387857Y-53253333D01*
X94054523Y-51824761D01*
X94054523Y-53824761D01*
X95864047Y-53824761D02*
X95864047Y-52777142D01*
X95768809Y-52586666D01*
X95578333Y-52491428D01*
X95197380Y-52491428D01*
X95006904Y-52586666D01*
X95864047Y-53729523D02*
X95673571Y-53824761D01*
X95197380Y-53824761D01*
X95006904Y-53729523D01*
X94911666Y-53539047D01*
X94911666Y-53348571D01*
X95006904Y-53158095D01*
X95197380Y-53062857D01*
X95673571Y-53062857D01*
X95864047Y-52967619D01*
X96816428Y-53824761D02*
X96816428Y-52491428D01*
X96816428Y-52872380D02*
X96911666Y-52681904D01*
X97006904Y-52586666D01*
X97197380Y-52491428D01*
X97387857Y-52491428D01*
X98054523Y-53824761D02*
X98054523Y-52491428D01*
X98054523Y-52872380D02*
X98149761Y-52681904D01*
X98245000Y-52586666D01*
X98435476Y-52491428D01*
X98625952Y-52491428D01*
X99578333Y-53824761D02*
X99387857Y-53729523D01*
X99292619Y-53634285D01*
X99197380Y-53443809D01*
X99197380Y-52872380D01*
X99292619Y-52681904D01*
X99387857Y-52586666D01*
X99578333Y-52491428D01*
X99864047Y-52491428D01*
X100054523Y-52586666D01*
X100149761Y-52681904D01*
X100245000Y-52872380D01*
X100245000Y-53443809D01*
X100149761Y-53634285D01*
X100054523Y-53729523D01*
X99864047Y-53824761D01*
X99578333Y-53824761D01*
X101102142Y-52491428D02*
X101102142Y-53824761D01*
X101102142Y-52681904D02*
X101197380Y-52586666D01*
X101387857Y-52491428D01*
X101673571Y-52491428D01*
X101864047Y-52586666D01*
X101959285Y-52777142D01*
X101959285Y-53824761D01*
X94221190Y-48824761D02*
X94221190Y-46824761D01*
X95364047Y-48824761D01*
X95364047Y-46824761D01*
X97078333Y-48729523D02*
X96887857Y-48824761D01*
X96506904Y-48824761D01*
X96316428Y-48729523D01*
X96221190Y-48539047D01*
X96221190Y-47777142D01*
X96316428Y-47586666D01*
X96506904Y-47491428D01*
X96887857Y-47491428D01*
X97078333Y-47586666D01*
X97173571Y-47777142D01*
X97173571Y-47967619D01*
X96221190Y-48158095D01*
X98887857Y-47491428D02*
X98887857Y-49110476D01*
X98792619Y-49300952D01*
X98697380Y-49396190D01*
X98506904Y-49491428D01*
X98221190Y-49491428D01*
X98030714Y-49396190D01*
X98887857Y-48729523D02*
X98697380Y-48824761D01*
X98316428Y-48824761D01*
X98125952Y-48729523D01*
X98030714Y-48634285D01*
X97935476Y-48443809D01*
X97935476Y-47872380D01*
X98030714Y-47681904D01*
X98125952Y-47586666D01*
X98316428Y-47491428D01*
X98697380Y-47491428D01*
X98887857Y-47586666D01*
X99840238Y-48824761D02*
X99840238Y-47491428D01*
X99840238Y-47872380D02*
X99935476Y-47681904D01*
X100030714Y-47586666D01*
X100221190Y-47491428D01*
X100411666Y-47491428D01*
X101364047Y-48824761D02*
X101173571Y-48729523D01*
X101078333Y-48634285D01*
X100983095Y-48443809D01*
X100983095Y-47872380D01*
X101078333Y-47681904D01*
X101173571Y-47586666D01*
X101364047Y-47491428D01*
X101649761Y-47491428D01*
X101840238Y-47586666D01*
X101935476Y-47681904D01*
X102030714Y-47872380D01*
X102030714Y-48443809D01*
X101935476Y-48634285D01*
X101840238Y-48729523D01*
X101649761Y-48824761D01*
X101364047Y-48824761D01*
X99857142Y-97904761D02*
X99952380Y-97619047D01*
X100047619Y-97523809D01*
X100238095Y-97428571D01*
X100523809Y-97428571D01*
X100714285Y-97523809D01*
X100809523Y-97619047D01*
X100904761Y-97809523D01*
X100904761Y-98571428D01*
X98904761Y-98571428D01*
X98904761Y-97904761D01*
X99000000Y-97714285D01*
X99095238Y-97619047D01*
X99285714Y-97523809D01*
X99476190Y-97523809D01*
X99666666Y-97619047D01*
X99761904Y-97714285D01*
X99857142Y-97904761D01*
X99857142Y-98571428D01*
X100904761Y-96285714D02*
X100809523Y-96476190D01*
X100714285Y-96571428D01*
X100523809Y-96666666D01*
X99952380Y-96666666D01*
X99761904Y-96571428D01*
X99666666Y-96476190D01*
X99571428Y-96285714D01*
X99571428Y-96000000D01*
X99666666Y-95809523D01*
X99761904Y-95714285D01*
X99952380Y-95619047D01*
X100523809Y-95619047D01*
X100714285Y-95714285D01*
X100809523Y-95809523D01*
X100904761Y-96000000D01*
X100904761Y-96285714D01*
X100904761Y-94761904D02*
X99571428Y-94761904D01*
X99761904Y-94761904D02*
X99666666Y-94666666D01*
X99571428Y-94476190D01*
X99571428Y-94190476D01*
X99666666Y-94000000D01*
X99857142Y-93904761D01*
X100904761Y-93904761D01*
X99857142Y-93904761D02*
X99666666Y-93809523D01*
X99571428Y-93619047D01*
X99571428Y-93333333D01*
X99666666Y-93142857D01*
X99857142Y-93047619D01*
X100904761Y-93047619D01*
X100904761Y-92095238D02*
X98904761Y-92095238D01*
X99666666Y-92095238D02*
X99571428Y-91904761D01*
X99571428Y-91523809D01*
X99666666Y-91333333D01*
X99761904Y-91238095D01*
X99952380Y-91142857D01*
X100523809Y-91142857D01*
X100714285Y-91238095D01*
X100809523Y-91333333D01*
X100904761Y-91523809D01*
X100904761Y-91904761D01*
X100809523Y-92095238D01*
X100904761Y-89428571D02*
X99857142Y-89428571D01*
X99666666Y-89523809D01*
X99571428Y-89714285D01*
X99571428Y-90095238D01*
X99666666Y-90285714D01*
X100809523Y-89428571D02*
X100904761Y-89619047D01*
X100904761Y-90095238D01*
X100809523Y-90285714D01*
X100619047Y-90380952D01*
X100428571Y-90380952D01*
X100238095Y-90285714D01*
X100142857Y-90095238D01*
X100142857Y-89619047D01*
X100047619Y-89428571D01*
D10*
X31859404Y-50380000D02*
X31764166Y-50332380D01*
X31621309Y-50332380D01*
X31478452Y-50380000D01*
X31383214Y-50475238D01*
X31335595Y-50570476D01*
X31287976Y-50760952D01*
X31287976Y-50903809D01*
X31335595Y-51094285D01*
X31383214Y-51189523D01*
X31478452Y-51284761D01*
X31621309Y-51332380D01*
X31716547Y-51332380D01*
X31859404Y-51284761D01*
X31907023Y-51237142D01*
X31907023Y-50903809D01*
X31716547Y-50903809D01*
X32335595Y-51332380D02*
X32335595Y-50332380D01*
X32907023Y-51332380D01*
X32907023Y-50332380D01*
X33383214Y-51332380D02*
X33383214Y-50332380D01*
X33621309Y-50332380D01*
X33764166Y-50380000D01*
X33859404Y-50475238D01*
X33907023Y-50570476D01*
X33954642Y-50760952D01*
X33954642Y-50903809D01*
X33907023Y-51094285D01*
X33859404Y-51189523D01*
X33764166Y-51284761D01*
X33621309Y-51332380D01*
X33383214Y-51332380D01*
X31335595Y-73332380D02*
X31335595Y-72332380D01*
X31716547Y-72332380D01*
X31811785Y-72380000D01*
X31859404Y-72427619D01*
X31907023Y-72522857D01*
X31907023Y-72665714D01*
X31859404Y-72760952D01*
X31811785Y-72808571D01*
X31716547Y-72856190D01*
X31335595Y-72856190D01*
X32764166Y-72665714D02*
X32764166Y-73332380D01*
X32335595Y-72665714D02*
X32335595Y-73189523D01*
X32383214Y-73284761D01*
X32478452Y-73332380D01*
X32621309Y-73332380D01*
X32716547Y-73284761D01*
X32764166Y-73237142D01*
X33240357Y-73332380D02*
X33240357Y-72665714D01*
X33240357Y-72760952D02*
X33287976Y-72713333D01*
X33383214Y-72665714D01*
X33526071Y-72665714D01*
X33621309Y-72713333D01*
X33668928Y-72808571D01*
X33668928Y-73332380D01*
X33668928Y-72808571D02*
X33716547Y-72713333D01*
X33811785Y-72665714D01*
X33954642Y-72665714D01*
X34049880Y-72713333D01*
X34097500Y-72808571D01*
X34097500Y-73332380D01*
X34573690Y-72665714D02*
X34573690Y-73665714D01*
X34573690Y-72713333D02*
X34668928Y-72665714D01*
X34859404Y-72665714D01*
X34954642Y-72713333D01*
X35002261Y-72760952D01*
X35049880Y-72856190D01*
X35049880Y-73141904D01*
X35002261Y-73237142D01*
X34954642Y-73284761D01*
X34859404Y-73332380D01*
X34668928Y-73332380D01*
X34573690Y-73284761D01*
X36621309Y-73284761D02*
X36526071Y-73332380D01*
X36335595Y-73332380D01*
X36240357Y-73284761D01*
X36192738Y-73189523D01*
X36192738Y-72808571D01*
X36240357Y-72713333D01*
X36335595Y-72665714D01*
X36526071Y-72665714D01*
X36621309Y-72713333D01*
X36668928Y-72808571D01*
X36668928Y-72903809D01*
X36192738Y-72999047D01*
X37097500Y-72665714D02*
X37097500Y-73332380D01*
X37097500Y-72760952D02*
X37145119Y-72713333D01*
X37240357Y-72665714D01*
X37383214Y-72665714D01*
X37478452Y-72713333D01*
X37526071Y-72808571D01*
X37526071Y-73332380D01*
X38430833Y-73332380D02*
X38430833Y-72808571D01*
X38383214Y-72713333D01*
X38287976Y-72665714D01*
X38097500Y-72665714D01*
X38002261Y-72713333D01*
X38430833Y-73284761D02*
X38335595Y-73332380D01*
X38097500Y-73332380D01*
X38002261Y-73284761D01*
X37954642Y-73189523D01*
X37954642Y-73094285D01*
X38002261Y-72999047D01*
X38097500Y-72951428D01*
X38335595Y-72951428D01*
X38430833Y-72903809D01*
X38907023Y-73332380D02*
X38907023Y-72332380D01*
X38907023Y-72713333D02*
X39002261Y-72665714D01*
X39192738Y-72665714D01*
X39287976Y-72713333D01*
X39335595Y-72760952D01*
X39383214Y-72856190D01*
X39383214Y-73141904D01*
X39335595Y-73237142D01*
X39287976Y-73284761D01*
X39192738Y-73332380D01*
X39002261Y-73332380D01*
X38907023Y-73284761D01*
X39954642Y-73332380D02*
X39859404Y-73284761D01*
X39811785Y-73189523D01*
X39811785Y-72332380D01*
X40716547Y-73284761D02*
X40621309Y-73332380D01*
X40430833Y-73332380D01*
X40335595Y-73284761D01*
X40287976Y-73189523D01*
X40287976Y-72808571D01*
X40335595Y-72713333D01*
X40430833Y-72665714D01*
X40621309Y-72665714D01*
X40716547Y-72713333D01*
X40764166Y-72808571D01*
X40764166Y-72903809D01*
X40287976Y-72999047D01*
D12*
X98904761Y-88309523D02*
X100904761Y-87642857D01*
X98904761Y-86976190D01*
X100904761Y-86309523D02*
X99571428Y-86309523D01*
X98904761Y-86309523D02*
X99000000Y-86404761D01*
X99095238Y-86309523D01*
X99000000Y-86214285D01*
X98904761Y-86309523D01*
X99095238Y-86309523D01*
X99571428Y-85547619D02*
X100904761Y-85071428D01*
X99571428Y-84595238D01*
X100904761Y-83547619D02*
X100809523Y-83738095D01*
X100714285Y-83833333D01*
X100523809Y-83928571D01*
X99952380Y-83928571D01*
X99761904Y-83833333D01*
X99666666Y-83738095D01*
X99571428Y-83547619D01*
X99571428Y-83261904D01*
X99666666Y-83071428D01*
X99761904Y-82976190D01*
X99952380Y-82880952D01*
X100523809Y-82880952D01*
X100714285Y-82976190D01*
X100809523Y-83071428D01*
X100904761Y-83261904D01*
X100904761Y-83547619D01*
X100904761Y-76328809D02*
X98904761Y-76328809D01*
X100904761Y-75185952D01*
X98904761Y-75185952D01*
X100809523Y-73471666D02*
X100904761Y-73662142D01*
X100904761Y-74043095D01*
X100809523Y-74233571D01*
X100619047Y-74328809D01*
X99857142Y-74328809D01*
X99666666Y-74233571D01*
X99571428Y-74043095D01*
X99571428Y-73662142D01*
X99666666Y-73471666D01*
X99857142Y-73376428D01*
X100047619Y-73376428D01*
X100238095Y-74328809D01*
X99571428Y-71662142D02*
X100904761Y-71662142D01*
X99571428Y-72519285D02*
X100619047Y-72519285D01*
X100809523Y-72424047D01*
X100904761Y-72233571D01*
X100904761Y-71947857D01*
X100809523Y-71757380D01*
X100714285Y-71662142D01*
X99571428Y-70995476D02*
X99571428Y-70233571D01*
X98904761Y-70709761D02*
X100619047Y-70709761D01*
X100809523Y-70614523D01*
X100904761Y-70424047D01*
X100904761Y-70233571D01*
X100904761Y-69566904D02*
X99571428Y-69566904D01*
X99952380Y-69566904D02*
X99761904Y-69471666D01*
X99666666Y-69376428D01*
X99571428Y-69185952D01*
X99571428Y-68995476D01*
X100904761Y-68043095D02*
X100809523Y-68233571D01*
X100714285Y-68328809D01*
X100523809Y-68424047D01*
X99952380Y-68424047D01*
X99761904Y-68328809D01*
X99666666Y-68233571D01*
X99571428Y-68043095D01*
X99571428Y-67757380D01*
X99666666Y-67566904D01*
X99761904Y-67471666D01*
X99952380Y-67376428D01*
X100523809Y-67376428D01*
X100714285Y-67471666D01*
X100809523Y-67566904D01*
X100904761Y-67757380D01*
X100904761Y-68043095D01*
D10*
X75690476Y-51904761D02*
X76357142Y-53904761D01*
X77023809Y-51904761D01*
X78547619Y-53904761D02*
X78547619Y-52857142D01*
X78452380Y-52666666D01*
X78261904Y-52571428D01*
X77880952Y-52571428D01*
X77690476Y-52666666D01*
X78547619Y-53809523D02*
X78357142Y-53904761D01*
X77880952Y-53904761D01*
X77690476Y-53809523D01*
X77595238Y-53619047D01*
X77595238Y-53428571D01*
X77690476Y-53238095D01*
X77880952Y-53142857D01*
X78357142Y-53142857D01*
X78547619Y-53047619D01*
X80357142Y-53809523D02*
X80166666Y-53904761D01*
X79785714Y-53904761D01*
X79595238Y-53809523D01*
X79500000Y-53714285D01*
X79404761Y-53523809D01*
X79404761Y-52952380D01*
X79500000Y-52761904D01*
X79595238Y-52666666D01*
X79785714Y-52571428D01*
X80166666Y-52571428D01*
X80357142Y-52666666D01*
X81214285Y-53904761D02*
X81214285Y-52571428D01*
X81214285Y-51904761D02*
X81119047Y-52000000D01*
X81214285Y-52095238D01*
X81309523Y-52000000D01*
X81214285Y-51904761D01*
X81214285Y-52095238D01*
X82452380Y-53904761D02*
X82261904Y-53809523D01*
X82166666Y-53714285D01*
X82071428Y-53523809D01*
X82071428Y-52952380D01*
X82166666Y-52761904D01*
X82261904Y-52666666D01*
X82452380Y-52571428D01*
X82738095Y-52571428D01*
X82928571Y-52666666D01*
X83023809Y-52761904D01*
X83119047Y-52952380D01*
X83119047Y-53523809D01*
X83023809Y-53714285D01*
X82928571Y-53809523D01*
X82738095Y-53904761D01*
X82452380Y-53904761D01*
D12*
X94221190Y-29824761D02*
X94221190Y-27824761D01*
X95364047Y-29824761D01*
X95364047Y-27824761D01*
X97078333Y-29729523D02*
X96887857Y-29824761D01*
X96506904Y-29824761D01*
X96316428Y-29729523D01*
X96221190Y-29539047D01*
X96221190Y-28777142D01*
X96316428Y-28586666D01*
X96506904Y-28491428D01*
X96887857Y-28491428D01*
X97078333Y-28586666D01*
X97173571Y-28777142D01*
X97173571Y-28967619D01*
X96221190Y-29158095D01*
X98887857Y-28491428D02*
X98887857Y-30110476D01*
X98792619Y-30300952D01*
X98697380Y-30396190D01*
X98506904Y-30491428D01*
X98221190Y-30491428D01*
X98030714Y-30396190D01*
X98887857Y-29729523D02*
X98697380Y-29824761D01*
X98316428Y-29824761D01*
X98125952Y-29729523D01*
X98030714Y-29634285D01*
X97935476Y-29443809D01*
X97935476Y-28872380D01*
X98030714Y-28681904D01*
X98125952Y-28586666D01*
X98316428Y-28491428D01*
X98697380Y-28491428D01*
X98887857Y-28586666D01*
X99840238Y-29824761D02*
X99840238Y-28491428D01*
X99840238Y-28872380D02*
X99935476Y-28681904D01*
X100030714Y-28586666D01*
X100221190Y-28491428D01*
X100411666Y-28491428D01*
X101364047Y-29824761D02*
X101173571Y-29729523D01*
X101078333Y-29634285D01*
X100983095Y-29443809D01*
X100983095Y-28872380D01*
X101078333Y-28681904D01*
X101173571Y-28586666D01*
X101364047Y-28491428D01*
X101649761Y-28491428D01*
X101840238Y-28586666D01*
X101935476Y-28681904D01*
X102030714Y-28872380D01*
X102030714Y-29443809D01*
X101935476Y-29634285D01*
X101840238Y-29729523D01*
X101649761Y-29824761D01*
X101364047Y-29824761D01*
X73452380Y-21904761D02*
X74595238Y-21904761D01*
X74023809Y-23904761D02*
X74023809Y-21904761D01*
X76119047Y-23904761D02*
X76119047Y-22857142D01*
X76023809Y-22666666D01*
X75833333Y-22571428D01*
X75452380Y-22571428D01*
X75261904Y-22666666D01*
X76119047Y-23809523D02*
X75928571Y-23904761D01*
X75452380Y-23904761D01*
X75261904Y-23809523D01*
X75166666Y-23619047D01*
X75166666Y-23428571D01*
X75261904Y-23238095D01*
X75452380Y-23142857D01*
X75928571Y-23142857D01*
X76119047Y-23047619D01*
X77071428Y-22571428D02*
X77071428Y-23904761D01*
X77071428Y-22761904D02*
X77166666Y-22666666D01*
X77357142Y-22571428D01*
X77642857Y-22571428D01*
X77833333Y-22666666D01*
X77928571Y-22857142D01*
X77928571Y-23904761D01*
X79738095Y-22571428D02*
X79738095Y-24571428D01*
X79738095Y-23809523D02*
X79547619Y-23904761D01*
X79166666Y-23904761D01*
X78976190Y-23809523D01*
X78880952Y-23714285D01*
X78785714Y-23523809D01*
X78785714Y-22952380D01*
X78880952Y-22761904D01*
X78976190Y-22666666D01*
X79166666Y-22571428D01*
X79547619Y-22571428D01*
X79738095Y-22666666D01*
X81547619Y-22571428D02*
X81547619Y-23904761D01*
X80690476Y-22571428D02*
X80690476Y-23619047D01*
X80785714Y-23809523D01*
X80976190Y-23904761D01*
X81261904Y-23904761D01*
X81452380Y-23809523D01*
X81547619Y-23714285D01*
X83261904Y-23809523D02*
X83071428Y-23904761D01*
X82690476Y-23904761D01*
X82500000Y-23809523D01*
X82404761Y-23619047D01*
X82404761Y-22857142D01*
X82500000Y-22666666D01*
X82690476Y-22571428D01*
X83071428Y-22571428D01*
X83261904Y-22666666D01*
X83357142Y-22857142D01*
X83357142Y-23047619D01*
X82404761Y-23238095D01*
D10*
X75190476Y-32904761D02*
X75857142Y-34904761D01*
X76523809Y-32904761D01*
X78047619Y-34904761D02*
X78047619Y-33857142D01*
X77952380Y-33666666D01*
X77761904Y-33571428D01*
X77380952Y-33571428D01*
X77190476Y-33666666D01*
X78047619Y-34809523D02*
X77857142Y-34904761D01*
X77380952Y-34904761D01*
X77190476Y-34809523D01*
X77095238Y-34619047D01*
X77095238Y-34428571D01*
X77190476Y-34238095D01*
X77380952Y-34142857D01*
X77857142Y-34142857D01*
X78047619Y-34047619D01*
X79857142Y-34809523D02*
X79666666Y-34904761D01*
X79285714Y-34904761D01*
X79095238Y-34809523D01*
X79000000Y-34714285D01*
X78904761Y-34523809D01*
X78904761Y-33952380D01*
X79000000Y-33761904D01*
X79095238Y-33666666D01*
X79285714Y-33571428D01*
X79666666Y-33571428D01*
X79857142Y-33666666D01*
X80714285Y-34904761D02*
X80714285Y-33571428D01*
X80714285Y-32904761D02*
X80619047Y-33000000D01*
X80714285Y-33095238D01*
X80809523Y-33000000D01*
X80714285Y-32904761D01*
X80714285Y-33095238D01*
X81952380Y-34904761D02*
X81761904Y-34809523D01*
X81666666Y-34714285D01*
X81571428Y-34523809D01*
X81571428Y-33952380D01*
X81666666Y-33761904D01*
X81761904Y-33666666D01*
X81952380Y-33571428D01*
X82238095Y-33571428D01*
X82428571Y-33666666D01*
X82523809Y-33761904D01*
X82619047Y-33952380D01*
X82619047Y-34523809D01*
X82523809Y-34714285D01*
X82428571Y-34809523D01*
X82238095Y-34904761D01*
X81952380Y-34904761D01*
D12*
X23376190Y-28304761D02*
X22233333Y-28304761D01*
X22804761Y-28304761D02*
X22804761Y-26304761D01*
X22614285Y-26590476D01*
X22423809Y-26780952D01*
X22233333Y-26876190D01*
X24138095Y-26495238D02*
X24233333Y-26400000D01*
X24423809Y-26304761D01*
X24900000Y-26304761D01*
X25090476Y-26400000D01*
X25185714Y-26495238D01*
X25280952Y-26685714D01*
X25280952Y-26876190D01*
X25185714Y-27161904D01*
X24042857Y-28304761D01*
X25280952Y-28304761D01*
X25852380Y-26304761D02*
X26519047Y-28304761D01*
X27185714Y-26304761D01*
X29376190Y-28304761D02*
X29376190Y-26304761D01*
X30328571Y-28304761D02*
X30328571Y-26304761D01*
X31471428Y-28304761D01*
X31471428Y-26304761D01*
D10*
X52504761Y-57152380D02*
X52028571Y-57152380D01*
X52028571Y-56152380D01*
X52838095Y-56628571D02*
X53171428Y-56628571D01*
X53314285Y-57152380D02*
X52838095Y-57152380D01*
X52838095Y-56152380D01*
X53314285Y-56152380D01*
X53695238Y-56866666D02*
X54171428Y-56866666D01*
X53600000Y-57152380D02*
X53933333Y-56152380D01*
X54266666Y-57152380D01*
X55171428Y-57152380D02*
X54838095Y-56676190D01*
X54600000Y-57152380D02*
X54600000Y-56152380D01*
X54980952Y-56152380D01*
X55076190Y-56200000D01*
X55123809Y-56247619D01*
X55171428Y-56342857D01*
X55171428Y-56485714D01*
X55123809Y-56580952D01*
X55076190Y-56628571D01*
X54980952Y-56676190D01*
X54600000Y-56676190D01*
X55600000Y-57152380D02*
X55600000Y-56152380D01*
X56171428Y-57152380D01*
X56171428Y-56152380D01*
D12*
X92721190Y-34824761D02*
X92721190Y-32824761D01*
X93387857Y-34253333D01*
X94054523Y-32824761D01*
X94054523Y-34824761D01*
X95864047Y-34824761D02*
X95864047Y-33777142D01*
X95768809Y-33586666D01*
X95578333Y-33491428D01*
X95197380Y-33491428D01*
X95006904Y-33586666D01*
X95864047Y-34729523D02*
X95673571Y-34824761D01*
X95197380Y-34824761D01*
X95006904Y-34729523D01*
X94911666Y-34539047D01*
X94911666Y-34348571D01*
X95006904Y-34158095D01*
X95197380Y-34062857D01*
X95673571Y-34062857D01*
X95864047Y-33967619D01*
X96816428Y-34824761D02*
X96816428Y-33491428D01*
X96816428Y-33872380D02*
X96911666Y-33681904D01*
X97006904Y-33586666D01*
X97197380Y-33491428D01*
X97387857Y-33491428D01*
X98054523Y-34824761D02*
X98054523Y-33491428D01*
X98054523Y-33872380D02*
X98149761Y-33681904D01*
X98245000Y-33586666D01*
X98435476Y-33491428D01*
X98625952Y-33491428D01*
X99578333Y-34824761D02*
X99387857Y-34729523D01*
X99292619Y-34634285D01*
X99197380Y-34443809D01*
X99197380Y-33872380D01*
X99292619Y-33681904D01*
X99387857Y-33586666D01*
X99578333Y-33491428D01*
X99864047Y-33491428D01*
X100054523Y-33586666D01*
X100149761Y-33681904D01*
X100245000Y-33872380D01*
X100245000Y-34443809D01*
X100149761Y-34634285D01*
X100054523Y-34729523D01*
X99864047Y-34824761D01*
X99578333Y-34824761D01*
X101102142Y-33491428D02*
X101102142Y-34824761D01*
X101102142Y-33681904D02*
X101197380Y-33586666D01*
X101387857Y-33491428D01*
X101673571Y-33491428D01*
X101864047Y-33586666D01*
X101959285Y-33777142D01*
X101959285Y-34824761D01*
D10*
X31811785Y-79332380D02*
X31335595Y-79332380D01*
X31335595Y-78332380D01*
X32526071Y-79284761D02*
X32430833Y-79332380D01*
X32240357Y-79332380D01*
X32145119Y-79284761D01*
X32097500Y-79189523D01*
X32097500Y-78808571D01*
X32145119Y-78713333D01*
X32240357Y-78665714D01*
X32430833Y-78665714D01*
X32526071Y-78713333D01*
X32573690Y-78808571D01*
X32573690Y-78903809D01*
X32097500Y-78999047D01*
X33430833Y-79332380D02*
X33430833Y-78808571D01*
X33383214Y-78713333D01*
X33287976Y-78665714D01*
X33097500Y-78665714D01*
X33002261Y-78713333D01*
X33430833Y-79284761D02*
X33335595Y-79332380D01*
X33097500Y-79332380D01*
X33002261Y-79284761D01*
X32954642Y-79189523D01*
X32954642Y-79094285D01*
X33002261Y-78999047D01*
X33097500Y-78951428D01*
X33335595Y-78951428D01*
X33430833Y-78903809D01*
X33907023Y-79332380D02*
X33907023Y-78665714D01*
X33907023Y-78856190D02*
X33954642Y-78760952D01*
X34002261Y-78713333D01*
X34097500Y-78665714D01*
X34192738Y-78665714D01*
X34526071Y-78665714D02*
X34526071Y-79332380D01*
X34526071Y-78760952D02*
X34573690Y-78713333D01*
X34668928Y-78665714D01*
X34811785Y-78665714D01*
X34907023Y-78713333D01*
X34954642Y-78808571D01*
X34954642Y-79332380D01*
X31192738Y-55332380D02*
X31764166Y-55332380D01*
X31478452Y-56332380D02*
X31478452Y-55332380D01*
X32526071Y-56332380D02*
X32526071Y-55808571D01*
X32478452Y-55713333D01*
X32383214Y-55665714D01*
X32192738Y-55665714D01*
X32097500Y-55713333D01*
X32526071Y-56284761D02*
X32430833Y-56332380D01*
X32192738Y-56332380D01*
X32097500Y-56284761D01*
X32049880Y-56189523D01*
X32049880Y-56094285D01*
X32097500Y-55999047D01*
X32192738Y-55951428D01*
X32430833Y-55951428D01*
X32526071Y-55903809D01*
X33002261Y-55665714D02*
X33002261Y-56332380D01*
X33002261Y-55760952D02*
X33049880Y-55713333D01*
X33145119Y-55665714D01*
X33287976Y-55665714D01*
X33383214Y-55713333D01*
X33430833Y-55808571D01*
X33430833Y-56332380D01*
X34335595Y-55665714D02*
X34335595Y-56665714D01*
X34335595Y-56284761D02*
X34240357Y-56332380D01*
X34049880Y-56332380D01*
X33954642Y-56284761D01*
X33907023Y-56237142D01*
X33859404Y-56141904D01*
X33859404Y-55856190D01*
X33907023Y-55760952D01*
X33954642Y-55713333D01*
X34049880Y-55665714D01*
X34240357Y-55665714D01*
X34335595Y-55713333D01*
X35240357Y-55665714D02*
X35240357Y-56332380D01*
X34811785Y-55665714D02*
X34811785Y-56189523D01*
X34859404Y-56284761D01*
X34954642Y-56332380D01*
X35097500Y-56332380D01*
X35192738Y-56284761D01*
X35240357Y-56237142D01*
X36097500Y-56284761D02*
X36002261Y-56332380D01*
X35811785Y-56332380D01*
X35716547Y-56284761D01*
X35668928Y-56189523D01*
X35668928Y-55808571D01*
X35716547Y-55713333D01*
X35811785Y-55665714D01*
X36002261Y-55665714D01*
X36097500Y-55713333D01*
X36145119Y-55808571D01*
X36145119Y-55903809D01*
X35668928Y-55999047D01*
D12*
X96125952Y-43253333D02*
X97078333Y-43253333D01*
X95935476Y-43824761D02*
X96602142Y-41824761D01*
X97268809Y-43824761D01*
X97745000Y-42491428D02*
X98792619Y-42491428D01*
X97745000Y-43824761D01*
X98792619Y-43824761D01*
X100411666Y-42491428D02*
X100411666Y-43824761D01*
X99554523Y-42491428D02*
X99554523Y-43539047D01*
X99649761Y-43729523D01*
X99840238Y-43824761D01*
X100125952Y-43824761D01*
X100316428Y-43729523D01*
X100411666Y-43634285D01*
X101649761Y-43824761D02*
X101459285Y-43729523D01*
X101364047Y-43539047D01*
X101364047Y-41824761D01*
X57339047Y-66554761D02*
X56672380Y-65602380D01*
X56196190Y-66554761D02*
X56196190Y-64554761D01*
X56958095Y-64554761D01*
X57148571Y-64650000D01*
X57243809Y-64745238D01*
X57339047Y-64935714D01*
X57339047Y-65221428D01*
X57243809Y-65411904D01*
X57148571Y-65507142D01*
X56958095Y-65602380D01*
X56196190Y-65602380D01*
X58481904Y-66554761D02*
X58291428Y-66459523D01*
X58196190Y-66364285D01*
X58100952Y-66173809D01*
X58100952Y-65602380D01*
X58196190Y-65411904D01*
X58291428Y-65316666D01*
X58481904Y-65221428D01*
X58767619Y-65221428D01*
X58958095Y-65316666D01*
X59053333Y-65411904D01*
X59148571Y-65602380D01*
X59148571Y-66173809D01*
X59053333Y-66364285D01*
X58958095Y-66459523D01*
X58767619Y-66554761D01*
X58481904Y-66554761D01*
X60862857Y-66554761D02*
X60862857Y-64554761D01*
X60862857Y-66459523D02*
X60672380Y-66554761D01*
X60291428Y-66554761D01*
X60100952Y-66459523D01*
X60005714Y-66364285D01*
X59910476Y-66173809D01*
X59910476Y-65602380D01*
X60005714Y-65411904D01*
X60100952Y-65316666D01*
X60291428Y-65221428D01*
X60672380Y-65221428D01*
X60862857Y-65316666D01*
X61815238Y-66554761D02*
X61815238Y-65221428D01*
X61815238Y-65602380D02*
X61910476Y-65411904D01*
X62005714Y-65316666D01*
X62196190Y-65221428D01*
X62386666Y-65221428D01*
X63053333Y-66554761D02*
X63053333Y-65221428D01*
X63053333Y-64554761D02*
X62958095Y-64650000D01*
X63053333Y-64745238D01*
X63148571Y-64650000D01*
X63053333Y-64554761D01*
X63053333Y-64745238D01*
X64862857Y-65221428D02*
X64862857Y-66840476D01*
X64767619Y-67030952D01*
X64672380Y-67126190D01*
X64481904Y-67221428D01*
X64196190Y-67221428D01*
X64005714Y-67126190D01*
X64862857Y-66459523D02*
X64672380Y-66554761D01*
X64291428Y-66554761D01*
X64100952Y-66459523D01*
X64005714Y-66364285D01*
X63910476Y-66173809D01*
X63910476Y-65602380D01*
X64005714Y-65411904D01*
X64100952Y-65316666D01*
X64291428Y-65221428D01*
X64672380Y-65221428D01*
X64862857Y-65316666D01*
X66100952Y-66554761D02*
X65910476Y-66459523D01*
X65815238Y-66364285D01*
X65720000Y-66173809D01*
X65720000Y-65602380D01*
X65815238Y-65411904D01*
X65910476Y-65316666D01*
X66100952Y-65221428D01*
X66386666Y-65221428D01*
X66577142Y-65316666D01*
X66672380Y-65411904D01*
X66767619Y-65602380D01*
X66767619Y-66173809D01*
X66672380Y-66364285D01*
X66577142Y-66459523D01*
X66386666Y-66554761D01*
X66100952Y-66554761D01*
X69148571Y-66554761D02*
X69148571Y-64554761D01*
X69815238Y-65983333D01*
X70481904Y-64554761D01*
X70481904Y-66554761D01*
X72291428Y-66554761D02*
X72291428Y-65507142D01*
X72196190Y-65316666D01*
X72005714Y-65221428D01*
X71624761Y-65221428D01*
X71434285Y-65316666D01*
X72291428Y-66459523D02*
X72100952Y-66554761D01*
X71624761Y-66554761D01*
X71434285Y-66459523D01*
X71339047Y-66269047D01*
X71339047Y-66078571D01*
X71434285Y-65888095D01*
X71624761Y-65792857D01*
X72100952Y-65792857D01*
X72291428Y-65697619D01*
X74005714Y-66459523D02*
X73815238Y-66554761D01*
X73434285Y-66554761D01*
X73243809Y-66459523D01*
X73148571Y-66269047D01*
X73148571Y-65507142D01*
X73243809Y-65316666D01*
X73434285Y-65221428D01*
X73815238Y-65221428D01*
X74005714Y-65316666D01*
X74100952Y-65507142D01*
X74100952Y-65697619D01*
X73148571Y-65888095D01*
X74958095Y-66554761D02*
X74958095Y-65221428D01*
X74958095Y-65602380D02*
X75053333Y-65411904D01*
X75148571Y-65316666D01*
X75339047Y-65221428D01*
X75529523Y-65221428D01*
X76481904Y-66554761D02*
X76291428Y-66459523D01*
X76196190Y-66364285D01*
X76100952Y-66173809D01*
X76100952Y-65602380D01*
X76196190Y-65411904D01*
X76291428Y-65316666D01*
X76481904Y-65221428D01*
X76767619Y-65221428D01*
X76958095Y-65316666D01*
X77053333Y-65411904D01*
X77148571Y-65602380D01*
X77148571Y-66173809D01*
X77053333Y-66364285D01*
X76958095Y-66459523D01*
X76767619Y-66554761D01*
X76481904Y-66554761D01*
X79529523Y-65792857D02*
X81053333Y-65792857D01*
X83434285Y-64745238D02*
X83529523Y-64650000D01*
X83720000Y-64554761D01*
X84196190Y-64554761D01*
X84386666Y-64650000D01*
X84481904Y-64745238D01*
X84577142Y-64935714D01*
X84577142Y-65126190D01*
X84481904Y-65411904D01*
X83339047Y-66554761D01*
X84577142Y-66554761D01*
X85815238Y-64554761D02*
X86005714Y-64554761D01*
X86196190Y-64650000D01*
X86291428Y-64745238D01*
X86386666Y-64935714D01*
X86481904Y-65316666D01*
X86481904Y-65792857D01*
X86386666Y-66173809D01*
X86291428Y-66364285D01*
X86196190Y-66459523D01*
X86005714Y-66554761D01*
X85815238Y-66554761D01*
X85624761Y-66459523D01*
X85529523Y-66364285D01*
X85434285Y-66173809D01*
X85339047Y-65792857D01*
X85339047Y-65316666D01*
X85434285Y-64935714D01*
X85529523Y-64745238D01*
X85624761Y-64650000D01*
X85815238Y-64554761D01*
X87243809Y-64745238D02*
X87339047Y-64650000D01*
X87529523Y-64554761D01*
X88005714Y-64554761D01*
X88196190Y-64650000D01*
X88291428Y-64745238D01*
X88386666Y-64935714D01*
X88386666Y-65126190D01*
X88291428Y-65411904D01*
X87148571Y-66554761D01*
X88386666Y-66554761D01*
X89053333Y-64554761D02*
X90291428Y-64554761D01*
X89624761Y-65316666D01*
X89910476Y-65316666D01*
X90100952Y-65411904D01*
X90196190Y-65507142D01*
X90291428Y-65697619D01*
X90291428Y-66173809D01*
X90196190Y-66364285D01*
X90100952Y-66459523D01*
X89910476Y-66554761D01*
X89339047Y-66554761D01*
X89148571Y-66459523D01*
X89053333Y-66364285D01*
X96125952Y-24253333D02*
X97078333Y-24253333D01*
X95935476Y-24824761D02*
X96602142Y-22824761D01*
X97268809Y-24824761D01*
X97745000Y-23491428D02*
X98792619Y-23491428D01*
X97745000Y-24824761D01*
X98792619Y-24824761D01*
X100411666Y-23491428D02*
X100411666Y-24824761D01*
X99554523Y-23491428D02*
X99554523Y-24539047D01*
X99649761Y-24729523D01*
X99840238Y-24824761D01*
X100125952Y-24824761D01*
X100316428Y-24729523D01*
X100411666Y-24634285D01*
X101649761Y-24824761D02*
X101459285Y-24729523D01*
X101364047Y-24539047D01*
X101364047Y-22824761D01*
X51764047Y-71089285D02*
X51668809Y-71184523D01*
X51383095Y-71279761D01*
X51192619Y-71279761D01*
X50906904Y-71184523D01*
X50716428Y-70994047D01*
X50621190Y-70803571D01*
X50525952Y-70422619D01*
X50525952Y-70136904D01*
X50621190Y-69755952D01*
X50716428Y-69565476D01*
X50906904Y-69375000D01*
X51192619Y-69279761D01*
X51383095Y-69279761D01*
X51668809Y-69375000D01*
X51764047Y-69470238D01*
X52906904Y-71279761D02*
X52716428Y-71184523D01*
X52621190Y-71089285D01*
X52525952Y-70898809D01*
X52525952Y-70327380D01*
X52621190Y-70136904D01*
X52716428Y-70041666D01*
X52906904Y-69946428D01*
X53192619Y-69946428D01*
X53383095Y-70041666D01*
X53478333Y-70136904D01*
X53573571Y-70327380D01*
X53573571Y-70898809D01*
X53478333Y-71089285D01*
X53383095Y-71184523D01*
X53192619Y-71279761D01*
X52906904Y-71279761D01*
X54430714Y-69946428D02*
X54430714Y-71279761D01*
X54430714Y-70136904D02*
X54525952Y-70041666D01*
X54716428Y-69946428D01*
X55002142Y-69946428D01*
X55192619Y-70041666D01*
X55287857Y-70232142D01*
X55287857Y-71279761D01*
X55954523Y-69946428D02*
X56716428Y-69946428D01*
X56240238Y-69279761D02*
X56240238Y-70994047D01*
X56335476Y-71184523D01*
X56525952Y-71279761D01*
X56716428Y-71279761D01*
X57383095Y-71279761D02*
X57383095Y-69946428D01*
X57383095Y-70327380D02*
X57478333Y-70136904D01*
X57573571Y-70041666D01*
X57764047Y-69946428D01*
X57954523Y-69946428D01*
X58906904Y-71279761D02*
X58716428Y-71184523D01*
X58621190Y-71089285D01*
X58525952Y-70898809D01*
X58525952Y-70327380D01*
X58621190Y-70136904D01*
X58716428Y-70041666D01*
X58906904Y-69946428D01*
X59192619Y-69946428D01*
X59383095Y-70041666D01*
X59478333Y-70136904D01*
X59573571Y-70327380D01*
X59573571Y-70898809D01*
X59478333Y-71089285D01*
X59383095Y-71184523D01*
X59192619Y-71279761D01*
X58906904Y-71279761D01*
X60716428Y-71279761D02*
X60525952Y-71184523D01*
X60430714Y-70994047D01*
X60430714Y-69279761D01*
X63859285Y-71279761D02*
X63859285Y-70232142D01*
X63764047Y-70041666D01*
X63573571Y-69946428D01*
X63192619Y-69946428D01*
X63002142Y-70041666D01*
X63859285Y-71184523D02*
X63668809Y-71279761D01*
X63192619Y-71279761D01*
X63002142Y-71184523D01*
X62906904Y-70994047D01*
X62906904Y-70803571D01*
X63002142Y-70613095D01*
X63192619Y-70517857D01*
X63668809Y-70517857D01*
X63859285Y-70422619D01*
X65668809Y-69946428D02*
X65668809Y-71279761D01*
X64811666Y-69946428D02*
X64811666Y-70994047D01*
X64906904Y-71184523D01*
X65097380Y-71279761D01*
X65383095Y-71279761D01*
X65573571Y-71184523D01*
X65668809Y-71089285D01*
X66335476Y-69946428D02*
X67097380Y-69946428D01*
X66621190Y-69279761D02*
X66621190Y-70994047D01*
X66716428Y-71184523D01*
X66906904Y-71279761D01*
X67097380Y-71279761D01*
X68049761Y-71279761D02*
X67859285Y-71184523D01*
X67764047Y-71089285D01*
X67668809Y-70898809D01*
X67668809Y-70327380D01*
X67764047Y-70136904D01*
X67859285Y-70041666D01*
X68049761Y-69946428D01*
X68335476Y-69946428D01*
X68525952Y-70041666D01*
X68621190Y-70136904D01*
X68716428Y-70327380D01*
X68716428Y-70898809D01*
X68621190Y-71089285D01*
X68525952Y-71184523D01*
X68335476Y-71279761D01*
X68049761Y-71279761D01*
X69573571Y-71279761D02*
X69573571Y-69946428D01*
X69573571Y-70136904D02*
X69668809Y-70041666D01*
X69859285Y-69946428D01*
X70145000Y-69946428D01*
X70335476Y-70041666D01*
X70430714Y-70232142D01*
X70430714Y-71279761D01*
X70430714Y-70232142D02*
X70525952Y-70041666D01*
X70716428Y-69946428D01*
X71002142Y-69946428D01*
X71192619Y-70041666D01*
X71287857Y-70232142D01*
X71287857Y-71279761D01*
X73097380Y-71279761D02*
X73097380Y-70232142D01*
X73002142Y-70041666D01*
X72811666Y-69946428D01*
X72430714Y-69946428D01*
X72240238Y-70041666D01*
X73097380Y-71184523D02*
X72906904Y-71279761D01*
X72430714Y-71279761D01*
X72240238Y-71184523D01*
X72145000Y-70994047D01*
X72145000Y-70803571D01*
X72240238Y-70613095D01*
X72430714Y-70517857D01*
X72906904Y-70517857D01*
X73097380Y-70422619D01*
X73764047Y-69946428D02*
X74525952Y-69946428D01*
X74049761Y-69279761D02*
X74049761Y-70994047D01*
X74145000Y-71184523D01*
X74335476Y-71279761D01*
X74525952Y-71279761D01*
X75192619Y-71279761D02*
X75192619Y-69946428D01*
X75192619Y-69279761D02*
X75097380Y-69375000D01*
X75192619Y-69470238D01*
X75287857Y-69375000D01*
X75192619Y-69279761D01*
X75192619Y-69470238D01*
X77002142Y-71184523D02*
X76811666Y-71279761D01*
X76430714Y-71279761D01*
X76240238Y-71184523D01*
X76145000Y-71089285D01*
X76049761Y-70898809D01*
X76049761Y-70327380D01*
X76145000Y-70136904D01*
X76240238Y-70041666D01*
X76430714Y-69946428D01*
X76811666Y-69946428D01*
X77002142Y-70041666D01*
X78145000Y-71279761D02*
X77954523Y-71184523D01*
X77859285Y-71089285D01*
X77764047Y-70898809D01*
X77764047Y-70327380D01*
X77859285Y-70136904D01*
X77954523Y-70041666D01*
X78145000Y-69946428D01*
X78430714Y-69946428D01*
X78621190Y-70041666D01*
X78716428Y-70136904D01*
X78811666Y-70327380D01*
X78811666Y-70898809D01*
X78716428Y-71089285D01*
X78621190Y-71184523D01*
X78430714Y-71279761D01*
X78145000Y-71279761D01*
X82049761Y-71279761D02*
X82049761Y-69279761D01*
X82049761Y-71184523D02*
X81859285Y-71279761D01*
X81478333Y-71279761D01*
X81287857Y-71184523D01*
X81192619Y-71089285D01*
X81097380Y-70898809D01*
X81097380Y-70327380D01*
X81192619Y-70136904D01*
X81287857Y-70041666D01*
X81478333Y-69946428D01*
X81859285Y-69946428D01*
X82049761Y-70041666D01*
X83764047Y-71184523D02*
X83573571Y-71279761D01*
X83192619Y-71279761D01*
X83002142Y-71184523D01*
X82906904Y-70994047D01*
X82906904Y-70232142D01*
X83002142Y-70041666D01*
X83192619Y-69946428D01*
X83573571Y-69946428D01*
X83764047Y-70041666D01*
X83859285Y-70232142D01*
X83859285Y-70422619D01*
X82906904Y-70613095D01*
X86240238Y-71279761D02*
X86240238Y-69279761D01*
X86240238Y-70041666D02*
X86430714Y-69946428D01*
X86811666Y-69946428D01*
X87002142Y-70041666D01*
X87097380Y-70136904D01*
X87192619Y-70327380D01*
X87192619Y-70898809D01*
X87097380Y-71089285D01*
X87002142Y-71184523D01*
X86811666Y-71279761D01*
X86430714Y-71279761D01*
X86240238Y-71184523D01*
X88335476Y-71279761D02*
X88145000Y-71184523D01*
X88049761Y-71089285D01*
X87954523Y-70898809D01*
X87954523Y-70327380D01*
X88049761Y-70136904D01*
X88145000Y-70041666D01*
X88335476Y-69946428D01*
X88621190Y-69946428D01*
X88811666Y-70041666D01*
X88906904Y-70136904D01*
X89002142Y-70327380D01*
X89002142Y-70898809D01*
X88906904Y-71089285D01*
X88811666Y-71184523D01*
X88621190Y-71279761D01*
X88335476Y-71279761D01*
X89859285Y-71279761D02*
X89859285Y-69946428D01*
X89859285Y-70136904D02*
X89954523Y-70041666D01*
X90144999Y-69946428D01*
X90430714Y-69946428D01*
X90621190Y-70041666D01*
X90716428Y-70232142D01*
X90716428Y-71279761D01*
X90716428Y-70232142D02*
X90811666Y-70041666D01*
X91002142Y-69946428D01*
X91287857Y-69946428D01*
X91478333Y-70041666D01*
X91573571Y-70232142D01*
X91573571Y-71279761D01*
X92525952Y-71279761D02*
X92525952Y-69279761D01*
X92525952Y-70041666D02*
X92716428Y-69946428D01*
X93097380Y-69946428D01*
X93287857Y-70041666D01*
X93383095Y-70136904D01*
X93478333Y-70327380D01*
X93478333Y-70898809D01*
X93383095Y-71089285D01*
X93287857Y-71184523D01*
X93097380Y-71279761D01*
X92716428Y-71279761D01*
X92525952Y-71184523D01*
X95192619Y-71279761D02*
X95192619Y-70232142D01*
X95097380Y-70041666D01*
X94906904Y-69946428D01*
X94525952Y-69946428D01*
X94335476Y-70041666D01*
X95192619Y-71184523D02*
X95002142Y-71279761D01*
X94525952Y-71279761D01*
X94335476Y-71184523D01*
X94240238Y-70994047D01*
X94240238Y-70803571D01*
X94335476Y-70613095D01*
X94525952Y-70517857D01*
X95002142Y-70517857D01*
X95192619Y-70422619D01*
D10*
X31287976Y-89046666D02*
X31764166Y-89046666D01*
X31192738Y-89332380D02*
X31526071Y-88332380D01*
X31859404Y-89332380D01*
X32192738Y-88332380D02*
X32192738Y-89141904D01*
X32240357Y-89237142D01*
X32287976Y-89284761D01*
X32383214Y-89332380D01*
X32573690Y-89332380D01*
X32668928Y-89284761D01*
X32716547Y-89237142D01*
X32764166Y-89141904D01*
X32764166Y-88332380D01*
X33145119Y-88332380D02*
X33811785Y-89332380D01*
X33811785Y-88332380D02*
X33145119Y-89332380D01*
X34145119Y-88427619D02*
X34192738Y-88380000D01*
X34287976Y-88332380D01*
X34526071Y-88332380D01*
X34621309Y-88380000D01*
X34668928Y-88427619D01*
X34716547Y-88522857D01*
X34716547Y-88618095D01*
X34668928Y-88760952D01*
X34097500Y-89332380D01*
X34716547Y-89332380D01*
X31811785Y-45332380D02*
X31335595Y-45332380D01*
X31287976Y-45808571D01*
X31335595Y-45760952D01*
X31430833Y-45713333D01*
X31668928Y-45713333D01*
X31764166Y-45760952D01*
X31811785Y-45808571D01*
X31859404Y-45903809D01*
X31859404Y-46141904D01*
X31811785Y-46237142D01*
X31764166Y-46284761D01*
X31668928Y-46332380D01*
X31430833Y-46332380D01*
X31335595Y-46284761D01*
X31287976Y-46237142D01*
X32145119Y-45332380D02*
X32478452Y-46332380D01*
X32811785Y-45332380D01*
%TO.C,J9*%
X20802380Y-84443333D02*
X21516666Y-84443333D01*
X21659523Y-84490952D01*
X21754761Y-84586190D01*
X21802380Y-84729047D01*
X21802380Y-84824285D01*
X21802380Y-83919523D02*
X21802380Y-83729047D01*
X21754761Y-83633809D01*
X21707142Y-83586190D01*
X21564285Y-83490952D01*
X21373809Y-83443333D01*
X20992857Y-83443333D01*
X20897619Y-83490952D01*
X20850000Y-83538571D01*
X20802380Y-83633809D01*
X20802380Y-83824285D01*
X20850000Y-83919523D01*
X20897619Y-83967142D01*
X20992857Y-84014761D01*
X21230952Y-84014761D01*
X21326190Y-83967142D01*
X21373809Y-83919523D01*
X21421428Y-83824285D01*
X21421428Y-83633809D01*
X21373809Y-83538571D01*
X21326190Y-83490952D01*
X21230952Y-83443333D01*
%TO.C,J4*%
X103452380Y-97333333D02*
X104166666Y-97333333D01*
X104309523Y-97380952D01*
X104404761Y-97476190D01*
X104452380Y-97619047D01*
X104452380Y-97714285D01*
X103785714Y-96428571D02*
X104452380Y-96428571D01*
X103404761Y-96666666D02*
X104119047Y-96904761D01*
X104119047Y-96285714D01*
%TO.C,R12*%
X34857142Y-43452380D02*
X34523809Y-42976190D01*
X34285714Y-43452380D02*
X34285714Y-42452380D01*
X34666666Y-42452380D01*
X34761904Y-42500000D01*
X34809523Y-42547619D01*
X34857142Y-42642857D01*
X34857142Y-42785714D01*
X34809523Y-42880952D01*
X34761904Y-42928571D01*
X34666666Y-42976190D01*
X34285714Y-42976190D01*
X35809523Y-43452380D02*
X35238095Y-43452380D01*
X35523809Y-43452380D02*
X35523809Y-42452380D01*
X35428571Y-42595238D01*
X35333333Y-42690476D01*
X35238095Y-42738095D01*
X36190476Y-42547619D02*
X36238095Y-42500000D01*
X36333333Y-42452380D01*
X36571428Y-42452380D01*
X36666666Y-42500000D01*
X36714285Y-42547619D01*
X36761904Y-42642857D01*
X36761904Y-42738095D01*
X36714285Y-42880952D01*
X36142857Y-43452380D01*
X36761904Y-43452380D01*
%TO.C,SW2*%
X45666666Y-51904761D02*
X45809523Y-51952380D01*
X46047619Y-51952380D01*
X46142857Y-51904761D01*
X46190476Y-51857142D01*
X46238095Y-51761904D01*
X46238095Y-51666666D01*
X46190476Y-51571428D01*
X46142857Y-51523809D01*
X46047619Y-51476190D01*
X45857142Y-51428571D01*
X45761904Y-51380952D01*
X45714285Y-51333333D01*
X45666666Y-51238095D01*
X45666666Y-51142857D01*
X45714285Y-51047619D01*
X45761904Y-51000000D01*
X45857142Y-50952380D01*
X46095238Y-50952380D01*
X46238095Y-51000000D01*
X46571428Y-50952380D02*
X46809523Y-51952380D01*
X47000000Y-51238095D01*
X47190476Y-51952380D01*
X47428571Y-50952380D01*
X47761904Y-51047619D02*
X47809523Y-51000000D01*
X47904761Y-50952380D01*
X48142857Y-50952380D01*
X48238095Y-51000000D01*
X48285714Y-51047619D01*
X48333333Y-51142857D01*
X48333333Y-51238095D01*
X48285714Y-51380952D01*
X47714285Y-51952380D01*
X48333333Y-51952380D01*
%TO.C,C3*%
X45833333Y-34311032D02*
X45785714Y-34358651D01*
X45642857Y-34406270D01*
X45547619Y-34406270D01*
X45404761Y-34358651D01*
X45309523Y-34263413D01*
X45261904Y-34168175D01*
X45214285Y-33977699D01*
X45214285Y-33834842D01*
X45261904Y-33644366D01*
X45309523Y-33549128D01*
X45404761Y-33453890D01*
X45547619Y-33406270D01*
X45642857Y-33406270D01*
X45785714Y-33453890D01*
X45833333Y-33501509D01*
X46166666Y-33406270D02*
X46785714Y-33406270D01*
X46452380Y-33787223D01*
X46595238Y-33787223D01*
X46690476Y-33834842D01*
X46738095Y-33882461D01*
X46785714Y-33977699D01*
X46785714Y-34215794D01*
X46738095Y-34311032D01*
X46690476Y-34358651D01*
X46595238Y-34406270D01*
X46309523Y-34406270D01*
X46214285Y-34358651D01*
X46166666Y-34311032D01*
%TO.C,D5*%
X46024646Y-70282380D02*
X46024646Y-69282380D01*
X46262742Y-69282380D01*
X46405599Y-69330000D01*
X46500837Y-69425238D01*
X46548456Y-69520476D01*
X46596075Y-69710952D01*
X46596075Y-69853809D01*
X46548456Y-70044285D01*
X46500837Y-70139523D01*
X46405599Y-70234761D01*
X46262742Y-70282380D01*
X46024646Y-70282380D01*
X47500837Y-69282380D02*
X47024646Y-69282380D01*
X46977027Y-69758571D01*
X47024646Y-69710952D01*
X47119884Y-69663333D01*
X47357980Y-69663333D01*
X47453218Y-69710952D01*
X47500837Y-69758571D01*
X47548456Y-69853809D01*
X47548456Y-70091904D01*
X47500837Y-70187142D01*
X47453218Y-70234761D01*
X47357980Y-70282380D01*
X47119884Y-70282380D01*
X47024646Y-70234761D01*
X46977027Y-70187142D01*
%TO.C,R11*%
X65857142Y-41452380D02*
X65523809Y-40976190D01*
X65285714Y-41452380D02*
X65285714Y-40452380D01*
X65666666Y-40452380D01*
X65761904Y-40500000D01*
X65809523Y-40547619D01*
X65857142Y-40642857D01*
X65857142Y-40785714D01*
X65809523Y-40880952D01*
X65761904Y-40928571D01*
X65666666Y-40976190D01*
X65285714Y-40976190D01*
X66809523Y-41452380D02*
X66238095Y-41452380D01*
X66523809Y-41452380D02*
X66523809Y-40452380D01*
X66428571Y-40595238D01*
X66333333Y-40690476D01*
X66238095Y-40738095D01*
X67761904Y-41452380D02*
X67190476Y-41452380D01*
X67476190Y-41452380D02*
X67476190Y-40452380D01*
X67380952Y-40595238D01*
X67285714Y-40690476D01*
X67190476Y-40738095D01*
%TO.C,D2*%
X86827355Y-34954951D02*
X86827355Y-33954951D01*
X87065451Y-33954951D01*
X87208308Y-34002571D01*
X87303546Y-34097809D01*
X87351165Y-34193047D01*
X87398784Y-34383523D01*
X87398784Y-34526380D01*
X87351165Y-34716856D01*
X87303546Y-34812094D01*
X87208308Y-34907332D01*
X87065451Y-34954951D01*
X86827355Y-34954951D01*
X87779736Y-34050190D02*
X87827355Y-34002571D01*
X87922593Y-33954951D01*
X88160689Y-33954951D01*
X88255927Y-34002571D01*
X88303546Y-34050190D01*
X88351165Y-34145428D01*
X88351165Y-34240666D01*
X88303546Y-34383523D01*
X87732117Y-34954951D01*
X88351165Y-34954951D01*
%TO.C,R1*%
X56833333Y-87452380D02*
X56500000Y-86976190D01*
X56261904Y-87452380D02*
X56261904Y-86452380D01*
X56642857Y-86452380D01*
X56738095Y-86500000D01*
X56785714Y-86547619D01*
X56833333Y-86642857D01*
X56833333Y-86785714D01*
X56785714Y-86880952D01*
X56738095Y-86928571D01*
X56642857Y-86976190D01*
X56261904Y-86976190D01*
X57785714Y-87452380D02*
X57214285Y-87452380D01*
X57500000Y-87452380D02*
X57500000Y-86452380D01*
X57404761Y-86595238D01*
X57309523Y-86690476D01*
X57214285Y-86738095D01*
%TO.C,D3*%
X86761904Y-45452380D02*
X86761904Y-44452380D01*
X87000000Y-44452380D01*
X87142857Y-44500000D01*
X87238095Y-44595238D01*
X87285714Y-44690476D01*
X87333333Y-44880952D01*
X87333333Y-45023809D01*
X87285714Y-45214285D01*
X87238095Y-45309523D01*
X87142857Y-45404761D01*
X87000000Y-45452380D01*
X86761904Y-45452380D01*
X87666666Y-44452380D02*
X88285714Y-44452380D01*
X87952380Y-44833333D01*
X88095238Y-44833333D01*
X88190476Y-44880952D01*
X88238095Y-44928571D01*
X88285714Y-45023809D01*
X88285714Y-45261904D01*
X88238095Y-45357142D01*
X88190476Y-45404761D01*
X88095238Y-45452380D01*
X87809523Y-45452380D01*
X87714285Y-45404761D01*
X87666666Y-45357142D01*
%TO.C,R3*%
X87333333Y-32452380D02*
X87000000Y-31976190D01*
X86761904Y-32452380D02*
X86761904Y-31452380D01*
X87142857Y-31452380D01*
X87238095Y-31500000D01*
X87285714Y-31547619D01*
X87333333Y-31642857D01*
X87333333Y-31785714D01*
X87285714Y-31880952D01*
X87238095Y-31928571D01*
X87142857Y-31976190D01*
X86761904Y-31976190D01*
X87666666Y-31452380D02*
X88285714Y-31452380D01*
X87952380Y-31833333D01*
X88095238Y-31833333D01*
X88190476Y-31880952D01*
X88238095Y-31928571D01*
X88285714Y-32023809D01*
X88285714Y-32261904D01*
X88238095Y-32357142D01*
X88190476Y-32404761D01*
X88095238Y-32452380D01*
X87809523Y-32452380D01*
X87714285Y-32404761D01*
X87666666Y-32357142D01*
%TO.C,U2*%
X54738095Y-28402380D02*
X54738095Y-29211904D01*
X54785714Y-29307142D01*
X54833333Y-29354761D01*
X54928571Y-29402380D01*
X55119047Y-29402380D01*
X55214285Y-29354761D01*
X55261904Y-29307142D01*
X55309523Y-29211904D01*
X55309523Y-28402380D01*
X55738095Y-28497619D02*
X55785714Y-28450000D01*
X55880952Y-28402380D01*
X56119047Y-28402380D01*
X56214285Y-28450000D01*
X56261904Y-28497619D01*
X56309523Y-28592857D01*
X56309523Y-28688095D01*
X56261904Y-28830952D01*
X55690476Y-29402380D01*
X56309523Y-29402380D01*
%TO.C,C1*%
X39833333Y-32357142D02*
X39785714Y-32404761D01*
X39642857Y-32452380D01*
X39547619Y-32452380D01*
X39404761Y-32404761D01*
X39309523Y-32309523D01*
X39261904Y-32214285D01*
X39214285Y-32023809D01*
X39214285Y-31880952D01*
X39261904Y-31690476D01*
X39309523Y-31595238D01*
X39404761Y-31500000D01*
X39547619Y-31452380D01*
X39642857Y-31452380D01*
X39785714Y-31500000D01*
X39833333Y-31547619D01*
X40785714Y-32452380D02*
X40214285Y-32452380D01*
X40500000Y-32452380D02*
X40500000Y-31452380D01*
X40404761Y-31595238D01*
X40309523Y-31690476D01*
X40214285Y-31738095D01*
%TO.C,U1*%
X47238095Y-21452380D02*
X47238095Y-22261904D01*
X47285714Y-22357142D01*
X47333333Y-22404761D01*
X47428571Y-22452380D01*
X47619047Y-22452380D01*
X47714285Y-22404761D01*
X47761904Y-22357142D01*
X47809523Y-22261904D01*
X47809523Y-21452380D01*
X48809523Y-22452380D02*
X48238095Y-22452380D01*
X48523809Y-22452380D02*
X48523809Y-21452380D01*
X48428571Y-21595238D01*
X48333333Y-21690476D01*
X48238095Y-21738095D01*
%TO.C,R13*%
X55857142Y-89452380D02*
X55523809Y-88976190D01*
X55285714Y-89452380D02*
X55285714Y-88452380D01*
X55666666Y-88452380D01*
X55761904Y-88500000D01*
X55809523Y-88547619D01*
X55857142Y-88642857D01*
X55857142Y-88785714D01*
X55809523Y-88880952D01*
X55761904Y-88928571D01*
X55666666Y-88976190D01*
X55285714Y-88976190D01*
X56809523Y-89452380D02*
X56238095Y-89452380D01*
X56523809Y-89452380D02*
X56523809Y-88452380D01*
X56428571Y-88595238D01*
X56333333Y-88690476D01*
X56238095Y-88738095D01*
X57142857Y-88452380D02*
X57761904Y-88452380D01*
X57428571Y-88833333D01*
X57571428Y-88833333D01*
X57666666Y-88880952D01*
X57714285Y-88928571D01*
X57761904Y-89023809D01*
X57761904Y-89261904D01*
X57714285Y-89357142D01*
X57666666Y-89404761D01*
X57571428Y-89452380D01*
X57285714Y-89452380D01*
X57190476Y-89404761D01*
X57142857Y-89357142D01*
%TO.C,J8*%
X103452380Y-80333333D02*
X104166666Y-80333333D01*
X104309523Y-80380952D01*
X104404761Y-80476190D01*
X104452380Y-80619047D01*
X104452380Y-80714285D01*
X103880952Y-79714285D02*
X103833333Y-79809523D01*
X103785714Y-79857142D01*
X103690476Y-79904761D01*
X103642857Y-79904761D01*
X103547619Y-79857142D01*
X103500000Y-79809523D01*
X103452380Y-79714285D01*
X103452380Y-79523809D01*
X103500000Y-79428571D01*
X103547619Y-79380952D01*
X103642857Y-79333333D01*
X103690476Y-79333333D01*
X103785714Y-79380952D01*
X103833333Y-79428571D01*
X103880952Y-79523809D01*
X103880952Y-79714285D01*
X103928571Y-79809523D01*
X103976190Y-79857142D01*
X104071428Y-79904761D01*
X104261904Y-79904761D01*
X104357142Y-79857142D01*
X104404761Y-79809523D01*
X104452380Y-79714285D01*
X104452380Y-79523809D01*
X104404761Y-79428571D01*
X104357142Y-79380952D01*
X104261904Y-79333333D01*
X104071428Y-79333333D01*
X103976190Y-79380952D01*
X103928571Y-79428571D01*
X103880952Y-79523809D01*
%TO.C,J7*%
X54666666Y-21952380D02*
X54666666Y-22666666D01*
X54619047Y-22809523D01*
X54523809Y-22904761D01*
X54380952Y-22952380D01*
X54285714Y-22952380D01*
X55047619Y-21952380D02*
X55714285Y-21952380D01*
X55285714Y-22952380D01*
%TO.C,J5*%
X103452380Y-35833333D02*
X104166666Y-35833333D01*
X104309523Y-35880952D01*
X104404761Y-35976190D01*
X104452380Y-36119047D01*
X104452380Y-36214285D01*
X103452380Y-34880952D02*
X103452380Y-35357142D01*
X103928571Y-35404761D01*
X103880952Y-35357142D01*
X103833333Y-35261904D01*
X103833333Y-35023809D01*
X103880952Y-34928571D01*
X103928571Y-34880952D01*
X104023809Y-34833333D01*
X104261904Y-34833333D01*
X104357142Y-34880952D01*
X104404761Y-34928571D01*
X104452380Y-35023809D01*
X104452380Y-35261904D01*
X104404761Y-35357142D01*
X104357142Y-35404761D01*
%TO.C,C5*%
X69333333Y-30787142D02*
X69285714Y-30834761D01*
X69142857Y-30882380D01*
X69047619Y-30882380D01*
X68904761Y-30834761D01*
X68809523Y-30739523D01*
X68761904Y-30644285D01*
X68714285Y-30453809D01*
X68714285Y-30310952D01*
X68761904Y-30120476D01*
X68809523Y-30025238D01*
X68904761Y-29930000D01*
X69047619Y-29882380D01*
X69142857Y-29882380D01*
X69285714Y-29930000D01*
X69333333Y-29977619D01*
X70238095Y-29882380D02*
X69761904Y-29882380D01*
X69714285Y-30358571D01*
X69761904Y-30310952D01*
X69857142Y-30263333D01*
X70095238Y-30263333D01*
X70190476Y-30310952D01*
X70238095Y-30358571D01*
X70285714Y-30453809D01*
X70285714Y-30691904D01*
X70238095Y-30787142D01*
X70190476Y-30834761D01*
X70095238Y-30882380D01*
X69857142Y-30882380D01*
X69761904Y-30834761D01*
X69714285Y-30787142D01*
%TO.C,J1*%
X28666666Y-43832380D02*
X28666666Y-44546666D01*
X28619047Y-44689523D01*
X28523809Y-44784761D01*
X28380952Y-44832380D01*
X28285714Y-44832380D01*
X29666666Y-44832380D02*
X29095238Y-44832380D01*
X29380952Y-44832380D02*
X29380952Y-43832380D01*
X29285714Y-43975238D01*
X29190476Y-44070476D01*
X29095238Y-44118095D01*
%TO.C,R7*%
X87333333Y-29452380D02*
X87000000Y-28976190D01*
X86761904Y-29452380D02*
X86761904Y-28452380D01*
X87142857Y-28452380D01*
X87238095Y-28500000D01*
X87285714Y-28547619D01*
X87333333Y-28642857D01*
X87333333Y-28785714D01*
X87285714Y-28880952D01*
X87238095Y-28928571D01*
X87142857Y-28976190D01*
X86761904Y-28976190D01*
X87666666Y-28452380D02*
X88333333Y-28452380D01*
X87904761Y-29452380D01*
%TO.C,D4*%
X86761904Y-53552380D02*
X86761904Y-52552380D01*
X87000000Y-52552380D01*
X87142857Y-52600000D01*
X87238095Y-52695238D01*
X87285714Y-52790476D01*
X87333333Y-52980952D01*
X87333333Y-53123809D01*
X87285714Y-53314285D01*
X87238095Y-53409523D01*
X87142857Y-53504761D01*
X87000000Y-53552380D01*
X86761904Y-53552380D01*
X88190476Y-52885714D02*
X88190476Y-53552380D01*
X87952380Y-52504761D02*
X87714285Y-53219047D01*
X88333333Y-53219047D01*
%TO.C,R5*%
X87333333Y-50952380D02*
X87000000Y-50476190D01*
X86761904Y-50952380D02*
X86761904Y-49952380D01*
X87142857Y-49952380D01*
X87238095Y-50000000D01*
X87285714Y-50047619D01*
X87333333Y-50142857D01*
X87333333Y-50285714D01*
X87285714Y-50380952D01*
X87238095Y-50428571D01*
X87142857Y-50476190D01*
X86761904Y-50476190D01*
X88238095Y-49952380D02*
X87761904Y-49952380D01*
X87714285Y-50428571D01*
X87761904Y-50380952D01*
X87857142Y-50333333D01*
X88095238Y-50333333D01*
X88190476Y-50380952D01*
X88238095Y-50428571D01*
X88285714Y-50523809D01*
X88285714Y-50761904D01*
X88238095Y-50857142D01*
X88190476Y-50904761D01*
X88095238Y-50952380D01*
X87857142Y-50952380D01*
X87761904Y-50904761D01*
X87714285Y-50857142D01*
%TO.C,R9*%
X87333333Y-48440578D02*
X87000000Y-47964388D01*
X86761904Y-48440578D02*
X86761904Y-47440578D01*
X87142857Y-47440578D01*
X87238095Y-47488198D01*
X87285714Y-47535817D01*
X87333333Y-47631055D01*
X87333333Y-47773912D01*
X87285714Y-47869150D01*
X87238095Y-47916769D01*
X87142857Y-47964388D01*
X86761904Y-47964388D01*
X87809523Y-48440578D02*
X88000000Y-48440578D01*
X88095238Y-48392959D01*
X88142857Y-48345340D01*
X88238095Y-48202483D01*
X88285714Y-48012007D01*
X88285714Y-47631055D01*
X88238095Y-47535817D01*
X88190476Y-47488198D01*
X88095238Y-47440578D01*
X87904761Y-47440578D01*
X87809523Y-47488198D01*
X87761904Y-47535817D01*
X87714285Y-47631055D01*
X87714285Y-47869150D01*
X87761904Y-47964388D01*
X87809523Y-48012007D01*
X87904761Y-48059626D01*
X88095238Y-48059626D01*
X88190476Y-48012007D01*
X88238095Y-47964388D01*
X88285714Y-47869150D01*
%TO.C,SW1*%
X45666666Y-46404761D02*
X45809523Y-46452380D01*
X46047619Y-46452380D01*
X46142857Y-46404761D01*
X46190476Y-46357142D01*
X46238095Y-46261904D01*
X46238095Y-46166666D01*
X46190476Y-46071428D01*
X46142857Y-46023809D01*
X46047619Y-45976190D01*
X45857142Y-45928571D01*
X45761904Y-45880952D01*
X45714285Y-45833333D01*
X45666666Y-45738095D01*
X45666666Y-45642857D01*
X45714285Y-45547619D01*
X45761904Y-45500000D01*
X45857142Y-45452380D01*
X46095238Y-45452380D01*
X46238095Y-45500000D01*
X46571428Y-45452380D02*
X46809523Y-46452380D01*
X47000000Y-45738095D01*
X47190476Y-46452380D01*
X47428571Y-45452380D01*
X48333333Y-46452380D02*
X47761904Y-46452380D01*
X48047619Y-46452380D02*
X48047619Y-45452380D01*
X47952380Y-45595238D01*
X47857142Y-45690476D01*
X47761904Y-45738095D01*
%TO.C,R4*%
X87333333Y-43252380D02*
X87000000Y-42776190D01*
X86761904Y-43252380D02*
X86761904Y-42252380D01*
X87142857Y-42252380D01*
X87238095Y-42300000D01*
X87285714Y-42347619D01*
X87333333Y-42442857D01*
X87333333Y-42585714D01*
X87285714Y-42680952D01*
X87238095Y-42728571D01*
X87142857Y-42776190D01*
X86761904Y-42776190D01*
X88190476Y-42585714D02*
X88190476Y-43252380D01*
X87952380Y-42204761D02*
X87714285Y-42919047D01*
X88333333Y-42919047D01*
%TO.C,C2*%
X45833333Y-32311032D02*
X45785714Y-32358651D01*
X45642857Y-32406270D01*
X45547619Y-32406270D01*
X45404761Y-32358651D01*
X45309523Y-32263413D01*
X45261904Y-32168175D01*
X45214285Y-31977699D01*
X45214285Y-31834842D01*
X45261904Y-31644366D01*
X45309523Y-31549128D01*
X45404761Y-31453890D01*
X45547619Y-31406270D01*
X45642857Y-31406270D01*
X45785714Y-31453890D01*
X45833333Y-31501509D01*
X46214285Y-31501509D02*
X46261904Y-31453890D01*
X46357142Y-31406270D01*
X46595238Y-31406270D01*
X46690476Y-31453890D01*
X46738095Y-31501509D01*
X46785714Y-31596747D01*
X46785714Y-31691985D01*
X46738095Y-31834842D01*
X46166666Y-32406270D01*
X46785714Y-32406270D01*
%TO.C,D7*%
X66261904Y-38252380D02*
X66261904Y-37252380D01*
X66500000Y-37252380D01*
X66642857Y-37300000D01*
X66738095Y-37395238D01*
X66785714Y-37490476D01*
X66833333Y-37680952D01*
X66833333Y-37823809D01*
X66785714Y-38014285D01*
X66738095Y-38109523D01*
X66642857Y-38204761D01*
X66500000Y-38252380D01*
X66261904Y-38252380D01*
X67166666Y-37252380D02*
X67833333Y-37252380D01*
X67404761Y-38252380D01*
%TO.C,D1*%
X86761904Y-26952380D02*
X86761904Y-25952380D01*
X87000000Y-25952380D01*
X87142857Y-26000000D01*
X87238095Y-26095238D01*
X87285714Y-26190476D01*
X87333333Y-26380952D01*
X87333333Y-26523809D01*
X87285714Y-26714285D01*
X87238095Y-26809523D01*
X87142857Y-26904761D01*
X87000000Y-26952380D01*
X86761904Y-26952380D01*
X88285714Y-26952380D02*
X87714285Y-26952380D01*
X88000000Y-26952380D02*
X88000000Y-25952380D01*
X87904761Y-26095238D01*
X87809523Y-26190476D01*
X87714285Y-26238095D01*
%TO.C,R2*%
X87333333Y-24952380D02*
X87000000Y-24476190D01*
X86761904Y-24952380D02*
X86761904Y-23952380D01*
X87142857Y-23952380D01*
X87238095Y-24000000D01*
X87285714Y-24047619D01*
X87333333Y-24142857D01*
X87333333Y-24285714D01*
X87285714Y-24380952D01*
X87238095Y-24428571D01*
X87142857Y-24476190D01*
X86761904Y-24476190D01*
X87714285Y-24047619D02*
X87761904Y-24000000D01*
X87857142Y-23952380D01*
X88095238Y-23952380D01*
X88190476Y-24000000D01*
X88238095Y-24047619D01*
X88285714Y-24142857D01*
X88285714Y-24238095D01*
X88238095Y-24380952D01*
X87666666Y-24952380D01*
X88285714Y-24952380D01*
%TO.C,R6*%
X41596075Y-70332380D02*
X41262742Y-69856190D01*
X41024646Y-70332380D02*
X41024646Y-69332380D01*
X41405599Y-69332380D01*
X41500837Y-69380000D01*
X41548456Y-69427619D01*
X41596075Y-69522857D01*
X41596075Y-69665714D01*
X41548456Y-69760952D01*
X41500837Y-69808571D01*
X41405599Y-69856190D01*
X41024646Y-69856190D01*
X42453218Y-69332380D02*
X42262742Y-69332380D01*
X42167503Y-69380000D01*
X42119884Y-69427619D01*
X42024646Y-69570476D01*
X41977027Y-69760952D01*
X41977027Y-70141904D01*
X42024646Y-70237142D01*
X42072265Y-70284761D01*
X42167503Y-70332380D01*
X42357980Y-70332380D01*
X42453218Y-70284761D01*
X42500837Y-70237142D01*
X42548456Y-70141904D01*
X42548456Y-69903809D01*
X42500837Y-69808571D01*
X42453218Y-69760952D01*
X42357980Y-69713333D01*
X42167503Y-69713333D01*
X42072265Y-69760952D01*
X42024646Y-69808571D01*
X41977027Y-69903809D01*
%TO.C,K1*%
X76311904Y-82452380D02*
X76311904Y-81452380D01*
X76883333Y-82452380D02*
X76454761Y-81880952D01*
X76883333Y-81452380D02*
X76311904Y-82023809D01*
X77835714Y-82452380D02*
X77264285Y-82452380D01*
X77550000Y-82452380D02*
X77550000Y-81452380D01*
X77454761Y-81595238D01*
X77359523Y-81690476D01*
X77264285Y-81738095D01*
%TO.C,Y1*%
X46023809Y-38176190D02*
X46023809Y-38652380D01*
X45690476Y-37652380D02*
X46023809Y-38176190D01*
X46357142Y-37652380D01*
X47214285Y-38652380D02*
X46642857Y-38652380D01*
X46928571Y-38652380D02*
X46928571Y-37652380D01*
X46833333Y-37795238D01*
X46738095Y-37890476D01*
X46642857Y-37938095D01*
%TO.C,Q1*%
X64804761Y-86347619D02*
X64709523Y-86300000D01*
X64614285Y-86204761D01*
X64471428Y-86061904D01*
X64376190Y-86014285D01*
X64280952Y-86014285D01*
X64328571Y-86252380D02*
X64233333Y-86204761D01*
X64138095Y-86109523D01*
X64090476Y-85919047D01*
X64090476Y-85585714D01*
X64138095Y-85395238D01*
X64233333Y-85300000D01*
X64328571Y-85252380D01*
X64519047Y-85252380D01*
X64614285Y-85300000D01*
X64709523Y-85395238D01*
X64757142Y-85585714D01*
X64757142Y-85919047D01*
X64709523Y-86109523D01*
X64614285Y-86204761D01*
X64519047Y-86252380D01*
X64328571Y-86252380D01*
X65709523Y-86252380D02*
X65138095Y-86252380D01*
X65423809Y-86252380D02*
X65423809Y-85252380D01*
X65328571Y-85395238D01*
X65233333Y-85490476D01*
X65138095Y-85538095D01*
%TO.C,J3*%
X34016666Y-27352380D02*
X34016666Y-28066666D01*
X33969047Y-28209523D01*
X33873809Y-28304761D01*
X33730952Y-28352380D01*
X33635714Y-28352380D01*
X34397619Y-27352380D02*
X35016666Y-27352380D01*
X34683333Y-27733333D01*
X34826190Y-27733333D01*
X34921428Y-27780952D01*
X34969047Y-27828571D01*
X35016666Y-27923809D01*
X35016666Y-28161904D01*
X34969047Y-28257142D01*
X34921428Y-28304761D01*
X34826190Y-28352380D01*
X34540476Y-28352380D01*
X34445238Y-28304761D01*
X34397619Y-28257142D01*
%TO.C,J2*%
X28666666Y-60832380D02*
X28666666Y-61546666D01*
X28619047Y-61689523D01*
X28523809Y-61784761D01*
X28380952Y-61832380D01*
X28285714Y-61832380D01*
X29095238Y-60927619D02*
X29142857Y-60880000D01*
X29238095Y-60832380D01*
X29476190Y-60832380D01*
X29571428Y-60880000D01*
X29619047Y-60927619D01*
X29666666Y-61022857D01*
X29666666Y-61118095D01*
X29619047Y-61260952D01*
X29047619Y-61832380D01*
X29666666Y-61832380D01*
%TO.C,R10*%
X80857142Y-48452380D02*
X80523809Y-47976190D01*
X80285714Y-48452380D02*
X80285714Y-47452380D01*
X80666666Y-47452380D01*
X80761904Y-47500000D01*
X80809523Y-47547619D01*
X80857142Y-47642857D01*
X80857142Y-47785714D01*
X80809523Y-47880952D01*
X80761904Y-47928571D01*
X80666666Y-47976190D01*
X80285714Y-47976190D01*
X81809523Y-48452380D02*
X81238095Y-48452380D01*
X81523809Y-48452380D02*
X81523809Y-47452380D01*
X81428571Y-47595238D01*
X81333333Y-47690476D01*
X81238095Y-47738095D01*
X82428571Y-47452380D02*
X82523809Y-47452380D01*
X82619047Y-47500000D01*
X82666666Y-47547619D01*
X82714285Y-47642857D01*
X82761904Y-47833333D01*
X82761904Y-48071428D01*
X82714285Y-48261904D01*
X82666666Y-48357142D01*
X82619047Y-48404761D01*
X82523809Y-48452380D01*
X82428571Y-48452380D01*
X82333333Y-48404761D01*
X82285714Y-48357142D01*
X82238095Y-48261904D01*
X82190476Y-48071428D01*
X82190476Y-47833333D01*
X82238095Y-47642857D01*
X82285714Y-47547619D01*
X82333333Y-47500000D01*
X82428571Y-47452380D01*
%TO.C,D6*%
X67654169Y-87289724D02*
X67654169Y-86289724D01*
X67892265Y-86289724D01*
X68035122Y-86337344D01*
X68130360Y-86432582D01*
X68177979Y-86527820D01*
X68225598Y-86718296D01*
X68225598Y-86861153D01*
X68177979Y-87051629D01*
X68130360Y-87146867D01*
X68035122Y-87242105D01*
X67892265Y-87289724D01*
X67654169Y-87289724D01*
X69082741Y-86289724D02*
X68892265Y-86289724D01*
X68797026Y-86337344D01*
X68749407Y-86384963D01*
X68654169Y-86527820D01*
X68606550Y-86718296D01*
X68606550Y-87099248D01*
X68654169Y-87194486D01*
X68701788Y-87242105D01*
X68797026Y-87289724D01*
X68987503Y-87289724D01*
X69082741Y-87242105D01*
X69130360Y-87194486D01*
X69177979Y-87099248D01*
X69177979Y-86861153D01*
X69130360Y-86765915D01*
X69082741Y-86718296D01*
X68987503Y-86670677D01*
X68797026Y-86670677D01*
X68701788Y-86718296D01*
X68654169Y-86765915D01*
X68606550Y-86861153D01*
%TO.C,C4*%
X69305615Y-34357142D02*
X69257996Y-34404761D01*
X69115139Y-34452380D01*
X69019901Y-34452380D01*
X68877043Y-34404761D01*
X68781805Y-34309523D01*
X68734186Y-34214285D01*
X68686567Y-34023809D01*
X68686567Y-33880952D01*
X68734186Y-33690476D01*
X68781805Y-33595238D01*
X68877043Y-33500000D01*
X69019901Y-33452380D01*
X69115139Y-33452380D01*
X69257996Y-33500000D01*
X69305615Y-33547619D01*
X70162758Y-33785714D02*
X70162758Y-34452380D01*
X69924662Y-33404761D02*
X69686567Y-34119047D01*
X70305615Y-34119047D01*
%TO.C,R8*%
X80433333Y-29452380D02*
X80100000Y-28976190D01*
X79861904Y-29452380D02*
X79861904Y-28452380D01*
X80242857Y-28452380D01*
X80338095Y-28500000D01*
X80385714Y-28547619D01*
X80433333Y-28642857D01*
X80433333Y-28785714D01*
X80385714Y-28880952D01*
X80338095Y-28928571D01*
X80242857Y-28976190D01*
X79861904Y-28976190D01*
X81004761Y-28880952D02*
X80909523Y-28833333D01*
X80861904Y-28785714D01*
X80814285Y-28690476D01*
X80814285Y-28642857D01*
X80861904Y-28547619D01*
X80909523Y-28500000D01*
X81004761Y-28452380D01*
X81195238Y-28452380D01*
X81290476Y-28500000D01*
X81338095Y-28547619D01*
X81385714Y-28642857D01*
X81385714Y-28690476D01*
X81338095Y-28785714D01*
X81290476Y-28833333D01*
X81195238Y-28880952D01*
X81004761Y-28880952D01*
X80909523Y-28928571D01*
X80861904Y-28976190D01*
X80814285Y-29071428D01*
X80814285Y-29261904D01*
X80861904Y-29357142D01*
X80909523Y-29404761D01*
X81004761Y-29452380D01*
X81195238Y-29452380D01*
X81290476Y-29404761D01*
X81338095Y-29357142D01*
X81385714Y-29261904D01*
X81385714Y-29071428D01*
X81338095Y-28976190D01*
X81290476Y-28928571D01*
X81195238Y-28880952D01*
%TO.C,J6*%
X103452380Y-54833333D02*
X104166666Y-54833333D01*
X104309523Y-54880952D01*
X104404761Y-54976190D01*
X104452380Y-55119047D01*
X104452380Y-55214285D01*
X103452380Y-53928571D02*
X103452380Y-54119047D01*
X103500000Y-54214285D01*
X103547619Y-54261904D01*
X103690476Y-54357142D01*
X103880952Y-54404761D01*
X104261904Y-54404761D01*
X104357142Y-54357142D01*
X104404761Y-54309523D01*
X104452380Y-54214285D01*
X104452380Y-54023809D01*
X104404761Y-53928571D01*
X104357142Y-53880952D01*
X104261904Y-53833333D01*
X104023809Y-53833333D01*
X103928571Y-53880952D01*
X103880952Y-53928571D01*
X103833333Y-54023809D01*
X103833333Y-54214285D01*
X103880952Y-54309523D01*
X103928571Y-54357142D01*
X104023809Y-54404761D01*
D13*
%TO.C,J9*%
X29810000Y-91700000D02*
X29810000Y-76460000D01*
X29810000Y-91700000D02*
X22190000Y-91700000D01*
X29810000Y-76460000D02*
X22190000Y-76460000D01*
X28540000Y-91700000D02*
X28540000Y-76460000D01*
X22190000Y-91700000D02*
X22190000Y-76460000D01*
%TO.C,J4*%
X110360000Y-98625664D02*
X110360000Y-83385664D01*
X102740000Y-98625664D02*
X102740000Y-83385664D01*
X109090000Y-98625664D02*
X109090000Y-83385664D01*
X110360000Y-83385664D02*
X102740000Y-83385664D01*
X110360000Y-98625664D02*
X102740000Y-98625664D01*
%TO.C,R12*%
X38403612Y-42728433D02*
X38878128Y-42728433D01*
X38403612Y-43773433D02*
X38878128Y-43773433D01*
%TO.C,SW2*%
X43850000Y-52800000D02*
X43850000Y-52550000D01*
X50150000Y-59450000D02*
X43850000Y-59450000D01*
X43850000Y-52550000D02*
X50150000Y-52550000D01*
X50150000Y-52550000D02*
X50150000Y-52800000D01*
X50150000Y-59200000D02*
X50150000Y-59450000D01*
X43850000Y-57300000D02*
X43850000Y-54700000D01*
X50150000Y-54700000D02*
X50150000Y-57300000D01*
X43850000Y-59450000D02*
X43850000Y-59200000D01*
%TO.C,C3*%
X48961828Y-34463890D02*
X48669294Y-34463890D01*
X48961828Y-33443890D02*
X48669294Y-33443890D01*
%TO.C,D5*%
X48485000Y-68635000D02*
X48485000Y-67165000D01*
X48485000Y-67165000D02*
X46200000Y-67165000D01*
X46200000Y-68635000D02*
X48485000Y-68635000D01*
%TO.C,R11*%
X69737258Y-40477500D02*
X69262742Y-40477500D01*
X69737258Y-41522500D02*
X69262742Y-41522500D01*
%TO.C,D2*%
X89665451Y-35237571D02*
X91950451Y-35237571D01*
X91950451Y-35237571D02*
X91950451Y-33767571D01*
X91950451Y-33767571D02*
X89665451Y-33767571D01*
%TO.C,R1*%
X59659065Y-86732320D02*
X60133581Y-86732320D01*
X59659065Y-87777320D02*
X60133581Y-87777320D01*
%TO.C,D3*%
X91885000Y-45635000D02*
X91885000Y-44165000D01*
X91885000Y-44165000D02*
X89600000Y-44165000D01*
X89600000Y-45635000D02*
X91885000Y-45635000D01*
%TO.C,R3*%
X90737258Y-31477500D02*
X90262742Y-31477500D01*
X90737258Y-32522500D02*
X90262742Y-32522500D01*
D10*
%TO.C,U2*%
X56875000Y-31600000D02*
X55450000Y-31600000D01*
X56875000Y-38625000D02*
X57200000Y-38625000D01*
X56875000Y-31375000D02*
X56875000Y-31600000D01*
X56875000Y-38625000D02*
X56875000Y-38300000D01*
X64125000Y-38625000D02*
X64125000Y-38300000D01*
X56875000Y-31375000D02*
X57200000Y-31375000D01*
X64125000Y-31375000D02*
X64125000Y-31700000D01*
X64125000Y-31375000D02*
X63800000Y-31375000D01*
X64125000Y-38625000D02*
X63800000Y-38625000D01*
D13*
%TO.C,C1*%
X42646267Y-31490000D02*
X42353733Y-31490000D01*
X42646267Y-32510000D02*
X42353733Y-32510000D01*
%TO.C,U1*%
X44650000Y-29910000D02*
X48410000Y-29910000D01*
X48410000Y-29910000D02*
X48410000Y-28650000D01*
X42400000Y-23090000D02*
X48410000Y-23090000D01*
X48410000Y-23090000D02*
X48410000Y-24350000D01*
%TO.C,R13*%
X60135973Y-89680955D02*
X59661457Y-89680955D01*
X60135973Y-88635955D02*
X59661457Y-88635955D01*
%TO.C,J8*%
X110360000Y-81580000D02*
X110360000Y-66340000D01*
X110360000Y-81580000D02*
X102740000Y-81580000D01*
X102740000Y-81580000D02*
X102740000Y-66340000D01*
X110360000Y-66340000D02*
X102740000Y-66340000D01*
X109090000Y-81580000D02*
X109090000Y-66340000D01*
%TO.C,J7*%
X57270000Y-26330000D02*
X57270000Y-23670000D01*
X54670000Y-23670000D02*
X56000000Y-23670000D01*
X70030000Y-26330000D02*
X70030000Y-23670000D01*
X57270000Y-23670000D02*
X70030000Y-23670000D01*
X54670000Y-25000000D02*
X54670000Y-23670000D01*
X57270000Y-26330000D02*
X70030000Y-26330000D01*
%TO.C,J5*%
X102740000Y-36540000D02*
X102740000Y-21300000D01*
X110360000Y-36540000D02*
X110360000Y-21300000D01*
X110360000Y-21300000D02*
X102740000Y-21300000D01*
X109090000Y-36540000D02*
X109090000Y-21300000D01*
X110360000Y-36540000D02*
X102740000Y-36540000D01*
%TO.C,C5*%
X69646267Y-29510000D02*
X69353733Y-29510000D01*
X69646267Y-28490000D02*
X69353733Y-28490000D01*
%TO.C,J1*%
X29810000Y-58500000D02*
X22190000Y-58500000D01*
X29810000Y-43260000D02*
X22190000Y-43260000D01*
X22190000Y-58500000D02*
X22190000Y-43260000D01*
X29810000Y-58500000D02*
X29810000Y-43260000D01*
X28540000Y-58500000D02*
X28540000Y-43260000D01*
%TO.C,R7*%
X90727816Y-29522500D02*
X90253300Y-29522500D01*
X90727816Y-28477500D02*
X90253300Y-28477500D01*
%TO.C,D4*%
X89500000Y-53735000D02*
X91785000Y-53735000D01*
X91785000Y-52265000D02*
X89500000Y-52265000D01*
X91785000Y-53735000D02*
X91785000Y-52265000D01*
%TO.C,R5*%
X90537258Y-51022500D02*
X90062742Y-51022500D01*
X90537258Y-49977500D02*
X90062742Y-49977500D01*
%TO.C,R9*%
X90537258Y-47477500D02*
X90062742Y-47477500D01*
X90537258Y-48522500D02*
X90062742Y-48522500D01*
%TO.C,SW1*%
X43850000Y-48950000D02*
X43850000Y-48700000D01*
X50150000Y-48700000D02*
X50150000Y-48950000D01*
X50150000Y-48950000D02*
X43850000Y-48950000D01*
X43850000Y-46800000D02*
X43850000Y-44200000D01*
X43850000Y-42050000D02*
X50150000Y-42050000D01*
X43850000Y-42300000D02*
X43850000Y-42050000D01*
X50150000Y-42050000D02*
X50150000Y-42300000D01*
X50150000Y-44200000D02*
X50150000Y-46800000D01*
%TO.C,R4*%
X90637258Y-41977500D02*
X90162742Y-41977500D01*
X90637258Y-43022500D02*
X90162742Y-43022500D01*
%TO.C,C2*%
X48932369Y-31443890D02*
X48639835Y-31443890D01*
X48932369Y-32463890D02*
X48639835Y-32463890D01*
%TO.C,D7*%
X68700000Y-38535000D02*
X70985000Y-38535000D01*
X70985000Y-37065000D02*
X68700000Y-37065000D01*
X70985000Y-38535000D02*
X70985000Y-37065000D01*
%TO.C,D1*%
X89700000Y-27235000D02*
X91985000Y-27235000D01*
X91985000Y-25765000D02*
X89700000Y-25765000D01*
X91985000Y-27235000D02*
X91985000Y-25765000D01*
%TO.C,R2*%
X90737258Y-23977500D02*
X90262742Y-23977500D01*
X90737258Y-25022500D02*
X90262742Y-25022500D01*
%TO.C,R6*%
X41762742Y-68402500D02*
X42237258Y-68402500D01*
X41762742Y-67357500D02*
X42237258Y-67357500D01*
%TO.C,K1*%
X91700000Y-86200000D02*
X91700000Y-88500000D01*
X95200000Y-82800000D02*
X95200000Y-98200000D01*
X81000000Y-92000000D02*
X81000000Y-89000000D01*
X86000000Y-92000000D02*
X81000000Y-89000000D01*
X95200000Y-98200000D02*
X76000000Y-98200000D01*
X87000000Y-90500000D02*
X87000000Y-94200000D01*
X91700000Y-94800000D02*
X91700000Y-92500000D01*
X88500000Y-90500000D02*
X93000000Y-87800000D01*
X76000000Y-91700000D02*
X76000000Y-98200000D01*
X76000000Y-82800000D02*
X95200000Y-82800000D01*
X87000000Y-94200000D02*
X80100000Y-94200000D01*
X86000000Y-89000000D02*
X86000000Y-92000000D01*
X87000000Y-90500000D02*
X88500000Y-90500000D01*
X83500000Y-84500000D02*
X83500000Y-89000000D01*
X76000000Y-82800000D02*
X76000000Y-89300000D01*
X80100000Y-90500000D02*
X79200000Y-90500000D01*
X83500000Y-84500000D02*
X81200000Y-84500000D01*
X81000000Y-89000000D02*
X86000000Y-89000000D01*
X80100000Y-90500000D02*
X80100000Y-94200000D01*
X86000000Y-92000000D02*
X81000000Y-92000000D01*
X83500000Y-92000000D02*
X83500000Y-96500000D01*
X81200000Y-96500000D02*
X83500000Y-96500000D01*
%TO.C,Y1*%
X50300000Y-40200000D02*
X50700000Y-40200000D01*
X48300000Y-40000000D02*
X48300000Y-39850000D01*
X48300000Y-36400000D02*
X48300000Y-36550000D01*
X50700000Y-38950000D02*
X51100000Y-38950000D01*
X50300000Y-36400000D02*
X50700000Y-36400000D01*
X48300000Y-36400000D02*
X50300000Y-36400000D01*
X50300000Y-40000000D02*
X50700000Y-40000000D01*
X50700000Y-38950000D02*
X50700000Y-39000000D01*
X50700000Y-40000000D02*
X50700000Y-39850000D01*
X50300000Y-40000000D02*
X48300000Y-40000000D01*
X50700000Y-36400000D02*
X50700000Y-36550000D01*
X48300000Y-40200000D02*
X50300000Y-40200000D01*
%TO.C,Q1*%
X64900000Y-86640000D02*
X65550000Y-86640000D01*
X64900000Y-86640000D02*
X63225000Y-86640000D01*
X64900000Y-89760000D02*
X65550000Y-89760000D01*
X64900000Y-89760000D02*
X64250000Y-89760000D01*
%TO.C,J3*%
X33850000Y-38520000D02*
X35070000Y-38520000D01*
X20330000Y-29280000D02*
X20330000Y-38520000D01*
X35070000Y-29280000D02*
X20330000Y-29280000D01*
X35070000Y-30950000D02*
X35070000Y-29280000D01*
X20330000Y-38520000D02*
X28450000Y-38520000D01*
X35070000Y-38520000D02*
X35070000Y-36850000D01*
%TO.C,J2*%
X29810000Y-60260000D02*
X22190000Y-60260000D01*
X29810000Y-75500000D02*
X29810000Y-60260000D01*
X22190000Y-75500000D02*
X22190000Y-60260000D01*
X29810000Y-75500000D02*
X22190000Y-75500000D01*
X28540000Y-75500000D02*
X28540000Y-60260000D01*
%TO.C,R10*%
X85237258Y-47477500D02*
X84762742Y-47477500D01*
X85237258Y-48522500D02*
X84762742Y-48522500D01*
%TO.C,D6*%
X71685000Y-89205000D02*
X71685000Y-85320000D01*
X69415000Y-89205000D02*
X71685000Y-89205000D01*
X69415000Y-85320000D02*
X69415000Y-89205000D01*
%TO.C,C4*%
X69618549Y-35881535D02*
X69326015Y-35881535D01*
X69618549Y-34861535D02*
X69326015Y-34861535D01*
%TO.C,R8*%
X83737258Y-29522500D02*
X83262742Y-29522500D01*
X83737258Y-28477500D02*
X83262742Y-28477500D01*
%TO.C,J6*%
X109090000Y-55550000D02*
X109090000Y-40310000D01*
X110360000Y-40310000D02*
X102740000Y-40310000D01*
X110360000Y-55550000D02*
X110360000Y-40310000D01*
X102740000Y-55550000D02*
X102740000Y-40310000D01*
X110360000Y-55550000D02*
X102740000Y-55550000D01*
%TD*%
%LPC*%
D14*
%TO.C,J9*%
X26000000Y-89160000D03*
D15*
X26000000Y-84080000D03*
X26000000Y-79000000D03*
%TD*%
D14*
%TO.C,J4*%
X106550000Y-96085664D03*
D15*
X106550000Y-91005664D03*
X106550000Y-85925664D03*
%TD*%
D16*
%TO.C,R12*%
X37815870Y-43250933D03*
X39465870Y-43250933D03*
%TD*%
D17*
%TO.C,SW2*%
X50975000Y-53750000D03*
X43025000Y-53750000D03*
X50975000Y-58250000D03*
X43025000Y-58250000D03*
%TD*%
D18*
%TO.C,C3*%
X49678061Y-33953890D03*
X47953061Y-33953890D03*
%TD*%
D19*
%TO.C,D5*%
X47787500Y-67900000D03*
X46212500Y-67900000D03*
%TD*%
D20*
%TO.C,R11*%
X70325000Y-41000000D03*
X68675000Y-41000000D03*
%TD*%
D19*
%TO.C,D2*%
X91252951Y-34502571D03*
X89677951Y-34502571D03*
%TD*%
D16*
%TO.C,R1*%
X59071323Y-87254820D03*
X60721323Y-87254820D03*
%TD*%
D19*
%TO.C,D3*%
X91187500Y-44900000D03*
X89612500Y-44900000D03*
%TD*%
D20*
%TO.C,R3*%
X91325000Y-32000000D03*
X89675000Y-32000000D03*
%TD*%
D21*
%TO.C,U2*%
X56250000Y-32200000D03*
X56250000Y-33000000D03*
X56250000Y-33800000D03*
X56250000Y-34600000D03*
X56250000Y-35400000D03*
X56250000Y-36200000D03*
X56250000Y-37000000D03*
X56250000Y-37800000D03*
D22*
X57700000Y-39250000D03*
X58500000Y-39250000D03*
X59300000Y-39250000D03*
X60100000Y-39250000D03*
X60900000Y-39250000D03*
X61700000Y-39250000D03*
X62500000Y-39250000D03*
X63300000Y-39250000D03*
D21*
X64750000Y-37800000D03*
X64750000Y-37000000D03*
X64750000Y-36200000D03*
X64750000Y-35400000D03*
X64750000Y-34600000D03*
X64750000Y-33800000D03*
X64750000Y-33000000D03*
X64750000Y-32200000D03*
D22*
X63300000Y-30750000D03*
X62500000Y-30750000D03*
X61700000Y-30750000D03*
X60900000Y-30750000D03*
X60100000Y-30750000D03*
X59300000Y-30750000D03*
X58500000Y-30750000D03*
X57700000Y-30750000D03*
%TD*%
D18*
%TO.C,C1*%
X43362500Y-32000000D03*
X41637500Y-32000000D03*
%TD*%
D23*
%TO.C,U1*%
X43350000Y-24200000D03*
X43350000Y-26500000D03*
D24*
X49650000Y-26500000D03*
D23*
X43350000Y-28800000D03*
%TD*%
D20*
%TO.C,R13*%
X60723715Y-89158455D03*
X59073715Y-89158455D03*
%TD*%
D14*
%TO.C,J8*%
X106550000Y-79040000D03*
D15*
X106550000Y-73960000D03*
X106550000Y-68880000D03*
%TD*%
D25*
%TO.C,J7*%
X56000000Y-25000000D03*
D26*
X58540000Y-25000000D03*
X61080000Y-25000000D03*
X63620000Y-25000000D03*
X66160000Y-25000000D03*
X68700000Y-25000000D03*
%TD*%
D14*
%TO.C,J5*%
X106550000Y-34000000D03*
D15*
X106550000Y-28920000D03*
X106550000Y-23840000D03*
%TD*%
D18*
%TO.C,C5*%
X70362500Y-29000000D03*
X68637500Y-29000000D03*
%TD*%
D14*
%TO.C,J1*%
X26000000Y-55960000D03*
D15*
X26000000Y-50880000D03*
X26000000Y-45800000D03*
%TD*%
D20*
%TO.C,R7*%
X91315558Y-29000000D03*
X89665558Y-29000000D03*
%TD*%
D19*
%TO.C,D4*%
X91087500Y-53000000D03*
X89512500Y-53000000D03*
%TD*%
D20*
%TO.C,R5*%
X91125000Y-50500000D03*
X89475000Y-50500000D03*
%TD*%
%TO.C,R9*%
X91125000Y-48000000D03*
X89475000Y-48000000D03*
%TD*%
D17*
%TO.C,SW1*%
X43025000Y-43250000D03*
X50975000Y-43250000D03*
X43025000Y-47750000D03*
X50975000Y-47750000D03*
%TD*%
D20*
%TO.C,R4*%
X91225000Y-42500000D03*
X89575000Y-42500000D03*
%TD*%
D18*
%TO.C,C2*%
X49648602Y-31953890D03*
X47923602Y-31953890D03*
%TD*%
D19*
%TO.C,D7*%
X70287500Y-37800000D03*
X68712500Y-37800000D03*
%TD*%
%TO.C,D1*%
X91287500Y-26500000D03*
X89712500Y-26500000D03*
%TD*%
D20*
%TO.C,R2*%
X91325000Y-24500000D03*
X89675000Y-24500000D03*
%TD*%
D16*
%TO.C,R6*%
X41175000Y-67880000D03*
X42825000Y-67880000D03*
%TD*%
D15*
%TO.C,K1*%
X77500000Y-90500000D03*
X91700000Y-84500000D03*
X91700000Y-96500000D03*
X79500000Y-96500000D03*
X79500000Y-84500000D03*
%TD*%
D27*
%TO.C,Y1*%
X49500000Y-39400000D03*
X49500000Y-38200000D03*
X49500000Y-37000000D03*
%TD*%
D28*
%TO.C,Q1*%
X63962500Y-87250000D03*
X63962500Y-89150000D03*
X65837500Y-88200000D03*
%TD*%
D29*
%TO.C,J3*%
X34350000Y-33900000D03*
D30*
X28150000Y-33900000D03*
D31*
X31150000Y-38600000D03*
%TD*%
D14*
%TO.C,J2*%
X26000000Y-72960000D03*
D15*
X26000000Y-67880000D03*
X26000000Y-62800000D03*
%TD*%
D20*
%TO.C,R10*%
X85825000Y-48000000D03*
X84175000Y-48000000D03*
%TD*%
D32*
%TO.C,D6*%
X70550000Y-88320000D03*
X70550000Y-85520000D03*
%TD*%
D18*
%TO.C,C4*%
X70334782Y-35371535D03*
X68609782Y-35371535D03*
%TD*%
D20*
%TO.C,R8*%
X84325000Y-29000000D03*
X82675000Y-29000000D03*
%TD*%
D14*
%TO.C,J6*%
X106550000Y-53010000D03*
D15*
X106550000Y-47930000D03*
X106550000Y-42850000D03*
%TD*%
M02*
