M48
; DRILL file {KiCad (6.0.9-0)} date 2023 January 29, Sunday 21:20:06
; FORMAT={-:-/ absolute / inch / decimal}
; #@! TF.CreationDate,2023-01-29T21:20:06-03:00
; #@! TF.GenerationSoftware,Kicad,Pcbnew,(6.0.9-0)
; #@! TF.FileFunction,Plated,1,2,PTH
FMAT,2
INCH
; #@! TA.AperFunction,Plated,PTH,ViaDrill
T1C0.0157
; #@! TA.AperFunction,Plated,PTH,ComponentDrill
T2C0.0394
; #@! TA.AperFunction,Plated,PTH,ComponentDrill
T3C0.0512
; #@! TA.AperFunction,Plated,PTH,ComponentDrill
T4C0.0598
%
G90
G05
T1
X1.7933Y-2.1161
X2.0472Y-1.063
X2.1253Y-1.2677
X2.2047Y-1.6024
X2.2047Y-1.7028
X2.2717Y-1.1447
X2.2717Y-1.85
X2.2795Y-1.3937
X2.2835Y-1.2992
X2.3663Y-1.3007
X2.4921Y-1.4567
X2.5079Y-1.7008
X2.5669Y-1.7008
X2.8346Y-3.3268
X3.6417Y-0.9646
X3.6417Y-1.6725
T2
X2.2047Y-0.9843
X2.3047Y-0.9843
X2.4047Y-0.9843
X2.5047Y-0.9843
X2.6047Y-0.9843
X2.7047Y-0.9843
T3
X3.0512Y-3.563
X3.1299Y-3.3268
X3.1299Y-3.7992
X3.6102Y-3.3268
X3.6102Y-3.7992
T4
X1.0236Y-1.8031
X1.0236Y-2.0031
X1.0236Y-2.2031
X1.0236Y-2.4724
X1.0236Y-2.6724
X1.0236Y-2.8724
X1.0236Y-3.1102
X1.0236Y-3.3102
X1.0236Y-3.5102
X4.1949Y-0.9386
X4.1949Y-1.1386
X4.1949Y-1.3386
X4.1949Y-1.687
X4.1949Y-1.887
X4.1949Y-2.087
X4.1949Y-2.7118
X4.1949Y-2.9118
X4.1949Y-3.1118
X4.1949Y-3.3829
X4.1949Y-3.5829
X4.1949Y-3.7829
T2
G00X1.1083Y-1.2953
M15
G01X1.1083Y-1.374
M16
G05
G00X1.187Y-1.5197
M15
G01X1.2657Y-1.5197
M16
G05
G00X1.3524Y-1.2854
M15
G01X1.3524Y-1.3839
M16
G05
T0
M30
