%TF.GenerationSoftware,KiCad,Pcbnew,(6.0.9-0)*%
%TF.CreationDate,2023-01-29T21:20:06-03:00*%
%TF.ProjectId,WaterPumpControl,57617465-7250-4756-9d70-436f6e74726f,rev?*%
%TF.SameCoordinates,Original*%
%TF.FileFunction,Soldermask,Bot*%
%TF.FilePolarity,Negative*%
%FSLAX46Y46*%
G04 Gerber Fmt 4.6, Leading zero omitted, Abs format (unit mm)*
G04 Created by KiCad (PCBNEW (6.0.9-0)) date 2023-01-29 21:20:06*
%MOMM*%
%LPD*%
G01*
G04 APERTURE LIST*
G04 Aperture macros list*
%AMFreePoly0*
4,1,22,0.500000,-0.750000,0.000000,-0.750000,0.000000,-0.745033,-0.079941,-0.743568,-0.215256,-0.701293,-0.333266,-0.622738,-0.424486,-0.514219,-0.481581,-0.384460,-0.499164,-0.250000,-0.500000,-0.250000,-0.500000,0.250000,-0.499164,0.250000,-0.499963,0.256109,-0.478152,0.396186,-0.417904,0.524511,-0.324060,0.630769,-0.204165,0.706417,-0.067858,0.745374,0.000000,0.744959,0.000000,0.750000,
0.500000,0.750000,0.500000,-0.750000,0.500000,-0.750000,$1*%
%AMFreePoly1*
4,1,20,0.000000,0.744959,0.073905,0.744508,0.209726,0.703889,0.328688,0.626782,0.421226,0.519385,0.479903,0.390333,0.500000,0.250000,0.500000,-0.250000,0.499851,-0.262216,0.476331,-0.402017,0.414519,-0.529596,0.319384,-0.634700,0.198574,-0.708877,0.061801,-0.746166,0.000000,-0.745033,0.000000,-0.750000,-0.500000,-0.750000,-0.500000,0.750000,0.000000,0.750000,0.000000,0.744959,
0.000000,0.744959,$1*%
G04 Aperture macros list end*
%ADD10R,3.000000X3.000000*%
%ADD11C,3.000000*%
%ADD12R,1.700000X1.700000*%
%ADD13O,1.700000X1.700000*%
%ADD14R,2.000000X4.500000*%
%ADD15O,2.000000X4.000000*%
%ADD16O,4.000000X2.000000*%
%ADD17FreePoly0,270.000000*%
%ADD18FreePoly1,270.000000*%
G04 APERTURE END LIST*
D10*
%TO.C,J9*%
X26000000Y-89160000D03*
D11*
X26000000Y-84080000D03*
X26000000Y-79000000D03*
%TD*%
D10*
%TO.C,J4*%
X106550000Y-96085664D03*
D11*
X106550000Y-91005664D03*
X106550000Y-85925664D03*
%TD*%
D10*
%TO.C,J8*%
X106550000Y-79040000D03*
D11*
X106550000Y-73960000D03*
X106550000Y-68880000D03*
%TD*%
D12*
%TO.C,J7*%
X56000000Y-25000000D03*
D13*
X58540000Y-25000000D03*
X61080000Y-25000000D03*
X63620000Y-25000000D03*
X66160000Y-25000000D03*
X68700000Y-25000000D03*
%TD*%
D10*
%TO.C,J5*%
X106550000Y-34000000D03*
D11*
X106550000Y-28920000D03*
X106550000Y-23840000D03*
%TD*%
D10*
%TO.C,J1*%
X26000000Y-55960000D03*
D11*
X26000000Y-50880000D03*
X26000000Y-45800000D03*
%TD*%
%TO.C,K1*%
X77500000Y-90500000D03*
X91700000Y-84500000D03*
X91700000Y-96500000D03*
X79500000Y-96500000D03*
X79500000Y-84500000D03*
%TD*%
D14*
%TO.C,J3*%
X34350000Y-33900000D03*
D15*
X28150000Y-33900000D03*
D16*
X31150000Y-38600000D03*
%TD*%
D10*
%TO.C,J2*%
X26000000Y-72960000D03*
D11*
X26000000Y-67880000D03*
X26000000Y-62800000D03*
%TD*%
D10*
%TO.C,J6*%
X106550000Y-53010000D03*
D11*
X106550000Y-47930000D03*
X106550000Y-42850000D03*
%TD*%
D17*
%TO.C,JP3*%
X41000000Y-54650000D03*
D18*
X41000000Y-55950000D03*
%TD*%
D17*
%TO.C,JP6*%
X41100000Y-82780000D03*
D18*
X41100000Y-84080000D03*
%TD*%
D17*
%TO.C,JP2*%
X41100000Y-71830000D03*
D18*
X41100000Y-73130000D03*
%TD*%
D17*
%TO.C,JP7*%
X41100000Y-87780000D03*
D18*
X41100000Y-89080000D03*
%TD*%
D17*
%TO.C,JP1*%
X41000000Y-66730000D03*
D18*
X41000000Y-68030000D03*
%TD*%
D17*
%TO.C,JP5*%
X41100000Y-77630000D03*
D18*
X41100000Y-78930000D03*
%TD*%
D17*
%TO.C,JP4*%
X41000000Y-61580000D03*
D18*
X41000000Y-62880000D03*
%TD*%
M02*
